<mxfile host="app.diagrams.net" modified="2023-02-23T03:37:25.167Z" agent="5.0 (Windows NT 10.0; Win64; x64) AppleWebKit/537.36 (KHTML, like Gecko) Chrome/110.0.0.0 Safari/537.36" etag="si39AkB6bxSGlTK1nzLJ" version="20.8.21" type="github">
  <diagram name="第 1 页" id="-2tjO55qXrrJnBCFQBi3">
    <mxGraphModel dx="1434" dy="708" grid="1" gridSize="10" guides="1" tooltips="1" connect="1" arrows="1" fold="1" page="1" pageScale="1" pageWidth="827" pageHeight="1169" math="0" shadow="0">
      <root>
        <mxCell id="0" />
        <mxCell id="1" parent="0" />
        <mxCell id="YQWvjCsICB9NxYi1fDgW-1" value="GSLOT 1" style="rounded=0;whiteSpace=wrap;html=1;fillColor=#ffe6cc;strokeColor=#d79b00;" vertex="1" parent="1">
          <mxGeometry x="160" y="120" width="80" height="20" as="geometry" />
        </mxCell>
        <mxCell id="YQWvjCsICB9NxYi1fDgW-2" value="GSLOT 1" style="rounded=0;whiteSpace=wrap;html=1;fillColor=#ffe6cc;strokeColor=#d79b00;" vertex="1" parent="1">
          <mxGeometry x="160" y="140" width="80" height="20" as="geometry" />
        </mxCell>
        <mxCell id="YQWvjCsICB9NxYi1fDgW-5" value="GSLOT 2" style="rounded=0;whiteSpace=wrap;html=1;fillColor=#dae8fc;strokeColor=#6c8ebf;" vertex="1" parent="1">
          <mxGeometry x="160" y="240" width="80" height="20" as="geometry" />
        </mxCell>
        <mxCell id="YQWvjCsICB9NxYi1fDgW-6" value="GSLOT 2" style="rounded=0;whiteSpace=wrap;html=1;fillColor=#dae8fc;strokeColor=#6c8ebf;" vertex="1" parent="1">
          <mxGeometry x="160" y="260" width="80" height="20" as="geometry" />
        </mxCell>
        <mxCell id="YQWvjCsICB9NxYi1fDgW-9" value="GSLOT 3" style="rounded=0;whiteSpace=wrap;html=1;fillColor=#d5e8d4;strokeColor=#82b366;" vertex="1" parent="1">
          <mxGeometry x="160" y="280" width="80" height="20" as="geometry" />
        </mxCell>
        <mxCell id="YQWvjCsICB9NxYi1fDgW-10" value="GSLOT 3" style="rounded=0;whiteSpace=wrap;html=1;fillColor=#d5e8d4;strokeColor=#82b366;" vertex="1" parent="1">
          <mxGeometry x="160" y="300" width="80" height="20" as="geometry" />
        </mxCell>
        <mxCell id="YQWvjCsICB9NxYi1fDgW-13" value="GSLOT 4" style="rounded=0;whiteSpace=wrap;html=1;fillColor=#f8cecc;strokeColor=#b85450;" vertex="1" parent="1">
          <mxGeometry x="160" y="360" width="80" height="20" as="geometry" />
        </mxCell>
        <mxCell id="YQWvjCsICB9NxYi1fDgW-25" value="GPORT1" style="rounded=0;whiteSpace=wrap;html=1;fillColor=#e1d5e7;strokeColor=#9673a6;" vertex="1" parent="1">
          <mxGeometry x="40" y="80" width="80" height="20" as="geometry" />
        </mxCell>
        <mxCell id="YQWvjCsICB9NxYi1fDgW-26" value="GPORT2" style="rounded=0;whiteSpace=wrap;html=1;fillColor=#e1d5e7;strokeColor=#9673a6;" vertex="1" parent="1">
          <mxGeometry x="40" y="100" width="80" height="20" as="geometry" />
        </mxCell>
        <mxCell id="YQWvjCsICB9NxYi1fDgW-27" value="GPORT3" style="rounded=0;whiteSpace=wrap;html=1;fillColor=#e1d5e7;strokeColor=#9673a6;" vertex="1" parent="1">
          <mxGeometry x="40" y="120" width="80" height="20" as="geometry" />
        </mxCell>
        <mxCell id="YQWvjCsICB9NxYi1fDgW-28" value="GPORT4" style="rounded=0;whiteSpace=wrap;html=1;fillColor=#e1d5e7;strokeColor=#9673a6;" vertex="1" parent="1">
          <mxGeometry x="40" y="140" width="80" height="20" as="geometry" />
        </mxCell>
        <mxCell id="YQWvjCsICB9NxYi1fDgW-32" value="GSLOT 1" style="rounded=0;whiteSpace=wrap;html=1;fillColor=#ffe6cc;strokeColor=#d79b00;" vertex="1" parent="1">
          <mxGeometry x="160" y="160" width="80" height="20" as="geometry" />
        </mxCell>
        <mxCell id="YQWvjCsICB9NxYi1fDgW-33" value="GSLOT 1" style="rounded=0;whiteSpace=wrap;html=1;fillColor=#ffe6cc;strokeColor=#d79b00;" vertex="1" parent="1">
          <mxGeometry x="160" y="180" width="80" height="20" as="geometry" />
        </mxCell>
        <mxCell id="YQWvjCsICB9NxYi1fDgW-34" value="GSLOT 2" style="rounded=0;whiteSpace=wrap;html=1;fillColor=#dae8fc;strokeColor=#6c8ebf;" vertex="1" parent="1">
          <mxGeometry x="160" y="200" width="80" height="20" as="geometry" />
        </mxCell>
        <mxCell id="YQWvjCsICB9NxYi1fDgW-35" value="GSLOT 2" style="rounded=0;whiteSpace=wrap;html=1;fillColor=#dae8fc;strokeColor=#6c8ebf;" vertex="1" parent="1">
          <mxGeometry x="160" y="220" width="80" height="20" as="geometry" />
        </mxCell>
        <mxCell id="YQWvjCsICB9NxYi1fDgW-36" value="GSLOT 3" style="rounded=0;whiteSpace=wrap;html=1;fillColor=#d5e8d4;strokeColor=#82b366;" vertex="1" parent="1">
          <mxGeometry x="160" y="320" width="80" height="20" as="geometry" />
        </mxCell>
        <mxCell id="YQWvjCsICB9NxYi1fDgW-37" value="GSLOT 3" style="rounded=0;whiteSpace=wrap;html=1;fillColor=#d5e8d4;strokeColor=#82b366;" vertex="1" parent="1">
          <mxGeometry x="160" y="340" width="80" height="20" as="geometry" />
        </mxCell>
        <mxCell id="YQWvjCsICB9NxYi1fDgW-49" value="GSLOT 4" style="rounded=0;whiteSpace=wrap;html=1;fillColor=#f8cecc;strokeColor=#b85450;" vertex="1" parent="1">
          <mxGeometry x="160" y="380" width="80" height="20" as="geometry" />
        </mxCell>
        <mxCell id="YQWvjCsICB9NxYi1fDgW-51" value="GSLOT 4" style="rounded=0;whiteSpace=wrap;html=1;fillColor=#f8cecc;strokeColor=#b85450;" vertex="1" parent="1">
          <mxGeometry x="160" y="400" width="80" height="20" as="geometry" />
        </mxCell>
        <mxCell id="YQWvjCsICB9NxYi1fDgW-52" value="GSLOT 4" style="rounded=0;whiteSpace=wrap;html=1;fillColor=#f8cecc;strokeColor=#b85450;" vertex="1" parent="1">
          <mxGeometry x="160" y="420" width="80" height="20" as="geometry" />
        </mxCell>
        <mxCell id="YQWvjCsICB9NxYi1fDgW-61" value="GSLOT 5" style="rounded=0;whiteSpace=wrap;html=1;fillColor=#ffe6cc;strokeColor=#d79b00;" vertex="1" parent="1">
          <mxGeometry x="160" y="440" width="80" height="20" as="geometry" />
        </mxCell>
        <mxCell id="YQWvjCsICB9NxYi1fDgW-62" value="GSLOT 5" style="rounded=0;whiteSpace=wrap;html=1;fillColor=#ffe6cc;strokeColor=#d79b00;" vertex="1" parent="1">
          <mxGeometry x="160" y="460" width="80" height="20" as="geometry" />
        </mxCell>
        <mxCell id="YQWvjCsICB9NxYi1fDgW-63" value="GSLOT 6" style="rounded=0;whiteSpace=wrap;html=1;fillColor=#dae8fc;strokeColor=#6c8ebf;" vertex="1" parent="1">
          <mxGeometry x="160" y="560" width="80" height="20" as="geometry" />
        </mxCell>
        <mxCell id="YQWvjCsICB9NxYi1fDgW-64" value="GSLOT 6" style="rounded=0;whiteSpace=wrap;html=1;fillColor=#dae8fc;strokeColor=#6c8ebf;" vertex="1" parent="1">
          <mxGeometry x="160" y="580" width="80" height="20" as="geometry" />
        </mxCell>
        <mxCell id="YQWvjCsICB9NxYi1fDgW-65" value="GSLOT 7" style="rounded=0;whiteSpace=wrap;html=1;fillColor=#d5e8d4;strokeColor=#82b366;" vertex="1" parent="1">
          <mxGeometry x="160" y="600" width="80" height="20" as="geometry" />
        </mxCell>
        <mxCell id="YQWvjCsICB9NxYi1fDgW-66" value="GSLOT 7" style="rounded=0;whiteSpace=wrap;html=1;fillColor=#d5e8d4;strokeColor=#82b366;" vertex="1" parent="1">
          <mxGeometry x="160" y="620" width="80" height="20" as="geometry" />
        </mxCell>
        <mxCell id="YQWvjCsICB9NxYi1fDgW-67" value="GSLOT 8" style="rounded=0;whiteSpace=wrap;html=1;fillColor=#f8cecc;strokeColor=#b85450;" vertex="1" parent="1">
          <mxGeometry x="160" y="680" width="80" height="20" as="geometry" />
        </mxCell>
        <mxCell id="YQWvjCsICB9NxYi1fDgW-68" value="GSLOT 5" style="rounded=0;whiteSpace=wrap;html=1;fillColor=#ffe6cc;strokeColor=#d79b00;" vertex="1" parent="1">
          <mxGeometry x="160" y="480" width="80" height="20" as="geometry" />
        </mxCell>
        <mxCell id="YQWvjCsICB9NxYi1fDgW-69" value="GSLOT 5" style="rounded=0;whiteSpace=wrap;html=1;fillColor=#ffe6cc;strokeColor=#d79b00;" vertex="1" parent="1">
          <mxGeometry x="160" y="500" width="80" height="20" as="geometry" />
        </mxCell>
        <mxCell id="YQWvjCsICB9NxYi1fDgW-70" value="GSLOT 6" style="rounded=0;whiteSpace=wrap;html=1;fillColor=#dae8fc;strokeColor=#6c8ebf;" vertex="1" parent="1">
          <mxGeometry x="160" y="520" width="80" height="20" as="geometry" />
        </mxCell>
        <mxCell id="YQWvjCsICB9NxYi1fDgW-71" value="GSLOT 6" style="rounded=0;whiteSpace=wrap;html=1;fillColor=#dae8fc;strokeColor=#6c8ebf;" vertex="1" parent="1">
          <mxGeometry x="160" y="540" width="80" height="20" as="geometry" />
        </mxCell>
        <mxCell id="YQWvjCsICB9NxYi1fDgW-72" value="GSLOT 7" style="rounded=0;whiteSpace=wrap;html=1;fillColor=#d5e8d4;strokeColor=#82b366;" vertex="1" parent="1">
          <mxGeometry x="160" y="640" width="80" height="20" as="geometry" />
        </mxCell>
        <mxCell id="YQWvjCsICB9NxYi1fDgW-73" value="GSLOT 7" style="rounded=0;whiteSpace=wrap;html=1;fillColor=#d5e8d4;strokeColor=#82b366;" vertex="1" parent="1">
          <mxGeometry x="160" y="660" width="80" height="20" as="geometry" />
        </mxCell>
        <mxCell id="YQWvjCsICB9NxYi1fDgW-74" value="GSLOT 8" style="rounded=0;whiteSpace=wrap;html=1;fillColor=#f8cecc;strokeColor=#b85450;" vertex="1" parent="1">
          <mxGeometry x="160" y="700" width="80" height="20" as="geometry" />
        </mxCell>
        <mxCell id="YQWvjCsICB9NxYi1fDgW-75" value="GSLOT 8" style="rounded=0;whiteSpace=wrap;html=1;fillColor=#f8cecc;strokeColor=#b85450;" vertex="1" parent="1">
          <mxGeometry x="160" y="720" width="80" height="20" as="geometry" />
        </mxCell>
        <mxCell id="YQWvjCsICB9NxYi1fDgW-76" value="GSLOT 8" style="rounded=0;whiteSpace=wrap;html=1;fillColor=#f8cecc;strokeColor=#b85450;" vertex="1" parent="1">
          <mxGeometry x="160" y="740" width="80" height="20" as="geometry" />
        </mxCell>
        <mxCell id="YQWvjCsICB9NxYi1fDgW-77" value="GSLOT 1" style="rounded=0;whiteSpace=wrap;html=1;fillColor=#ffe6cc;strokeColor=#d79b00;" vertex="1" parent="1">
          <mxGeometry x="360" y="120" width="80" height="20" as="geometry" />
        </mxCell>
        <mxCell id="YQWvjCsICB9NxYi1fDgW-81" value="GSLOT 3" style="rounded=0;whiteSpace=wrap;html=1;fillColor=#d5e8d4;strokeColor=#82b366;" vertex="1" parent="1">
          <mxGeometry x="360" y="160" width="80" height="20" as="geometry" />
        </mxCell>
        <mxCell id="YQWvjCsICB9NxYi1fDgW-83" value="GSLOT 4" style="rounded=0;whiteSpace=wrap;html=1;fillColor=#f8cecc;strokeColor=#b85450;" vertex="1" parent="1">
          <mxGeometry x="360" y="180" width="80" height="20" as="geometry" />
        </mxCell>
        <mxCell id="YQWvjCsICB9NxYi1fDgW-86" value="GSLOT 2" style="rounded=0;whiteSpace=wrap;html=1;fillColor=#dae8fc;strokeColor=#6c8ebf;" vertex="1" parent="1">
          <mxGeometry x="360" y="140" width="80" height="20" as="geometry" />
        </mxCell>
        <mxCell id="YQWvjCsICB9NxYi1fDgW-93" value="GSLOT 5" style="rounded=0;whiteSpace=wrap;html=1;fillColor=#ffe6cc;strokeColor=#d79b00;" vertex="1" parent="1">
          <mxGeometry x="360" y="200" width="80" height="20" as="geometry" />
        </mxCell>
        <mxCell id="YQWvjCsICB9NxYi1fDgW-97" value="GSLOT 7" style="rounded=0;whiteSpace=wrap;html=1;fillColor=#d5e8d4;strokeColor=#82b366;" vertex="1" parent="1">
          <mxGeometry x="360" y="240" width="80" height="20" as="geometry" />
        </mxCell>
        <mxCell id="YQWvjCsICB9NxYi1fDgW-99" value="GSLOT 8" style="rounded=0;whiteSpace=wrap;html=1;fillColor=#f8cecc;strokeColor=#b85450;" vertex="1" parent="1">
          <mxGeometry x="360" y="260" width="80" height="20" as="geometry" />
        </mxCell>
        <mxCell id="YQWvjCsICB9NxYi1fDgW-102" value="GSLOT 6" style="rounded=0;whiteSpace=wrap;html=1;fillColor=#dae8fc;strokeColor=#6c8ebf;" vertex="1" parent="1">
          <mxGeometry x="360" y="220" width="80" height="20" as="geometry" />
        </mxCell>
        <mxCell id="YQWvjCsICB9NxYi1fDgW-124" value="GSLOT 1" style="rounded=0;whiteSpace=wrap;html=1;fillColor=#ffe6cc;strokeColor=#d79b00;" vertex="1" parent="1">
          <mxGeometry x="360" y="280" width="80" height="20" as="geometry" />
        </mxCell>
        <mxCell id="YQWvjCsICB9NxYi1fDgW-125" value="GSLOT 3" style="rounded=0;whiteSpace=wrap;html=1;fillColor=#d5e8d4;strokeColor=#82b366;" vertex="1" parent="1">
          <mxGeometry x="360" y="320" width="80" height="20" as="geometry" />
        </mxCell>
        <mxCell id="YQWvjCsICB9NxYi1fDgW-126" value="GSLOT 4" style="rounded=0;whiteSpace=wrap;html=1;fillColor=#f8cecc;strokeColor=#b85450;" vertex="1" parent="1">
          <mxGeometry x="360" y="340" width="80" height="20" as="geometry" />
        </mxCell>
        <mxCell id="YQWvjCsICB9NxYi1fDgW-127" value="GSLOT 2" style="rounded=0;whiteSpace=wrap;html=1;fillColor=#dae8fc;strokeColor=#6c8ebf;" vertex="1" parent="1">
          <mxGeometry x="360" y="300" width="80" height="20" as="geometry" />
        </mxCell>
        <mxCell id="YQWvjCsICB9NxYi1fDgW-128" value="GSLOT 5" style="rounded=0;whiteSpace=wrap;html=1;fillColor=#ffe6cc;strokeColor=#d79b00;" vertex="1" parent="1">
          <mxGeometry x="360" y="360" width="80" height="20" as="geometry" />
        </mxCell>
        <mxCell id="YQWvjCsICB9NxYi1fDgW-129" value="GSLOT 7" style="rounded=0;whiteSpace=wrap;html=1;fillColor=#d5e8d4;strokeColor=#82b366;" vertex="1" parent="1">
          <mxGeometry x="360" y="400" width="80" height="20" as="geometry" />
        </mxCell>
        <mxCell id="YQWvjCsICB9NxYi1fDgW-130" value="GSLOT 8" style="rounded=0;whiteSpace=wrap;html=1;fillColor=#f8cecc;strokeColor=#b85450;" vertex="1" parent="1">
          <mxGeometry x="360" y="420" width="80" height="20" as="geometry" />
        </mxCell>
        <mxCell id="YQWvjCsICB9NxYi1fDgW-131" value="GSLOT 6" style="rounded=0;whiteSpace=wrap;html=1;fillColor=#dae8fc;strokeColor=#6c8ebf;" vertex="1" parent="1">
          <mxGeometry x="360" y="380" width="80" height="20" as="geometry" />
        </mxCell>
        <mxCell id="YQWvjCsICB9NxYi1fDgW-132" value="GSLOT 1" style="rounded=0;whiteSpace=wrap;html=1;fillColor=#ffe6cc;strokeColor=#d79b00;" vertex="1" parent="1">
          <mxGeometry x="360" y="440" width="80" height="20" as="geometry" />
        </mxCell>
        <mxCell id="YQWvjCsICB9NxYi1fDgW-133" value="GSLOT 3" style="rounded=0;whiteSpace=wrap;html=1;fillColor=#d5e8d4;strokeColor=#82b366;" vertex="1" parent="1">
          <mxGeometry x="360" y="480" width="80" height="20" as="geometry" />
        </mxCell>
        <mxCell id="YQWvjCsICB9NxYi1fDgW-134" value="GSLOT 4" style="rounded=0;whiteSpace=wrap;html=1;fillColor=#f8cecc;strokeColor=#b85450;" vertex="1" parent="1">
          <mxGeometry x="360" y="500" width="80" height="20" as="geometry" />
        </mxCell>
        <mxCell id="YQWvjCsICB9NxYi1fDgW-135" value="GSLOT 2" style="rounded=0;whiteSpace=wrap;html=1;fillColor=#dae8fc;strokeColor=#6c8ebf;" vertex="1" parent="1">
          <mxGeometry x="360" y="460" width="80" height="20" as="geometry" />
        </mxCell>
        <mxCell id="YQWvjCsICB9NxYi1fDgW-136" value="GSLOT 5" style="rounded=0;whiteSpace=wrap;html=1;fillColor=#ffe6cc;strokeColor=#d79b00;" vertex="1" parent="1">
          <mxGeometry x="360" y="520" width="80" height="20" as="geometry" />
        </mxCell>
        <mxCell id="YQWvjCsICB9NxYi1fDgW-137" value="GSLOT 7" style="rounded=0;whiteSpace=wrap;html=1;fillColor=#d5e8d4;strokeColor=#82b366;" vertex="1" parent="1">
          <mxGeometry x="360" y="560" width="80" height="20" as="geometry" />
        </mxCell>
        <mxCell id="YQWvjCsICB9NxYi1fDgW-138" value="GSLOT 8" style="rounded=0;whiteSpace=wrap;html=1;fillColor=#f8cecc;strokeColor=#b85450;" vertex="1" parent="1">
          <mxGeometry x="360" y="580" width="80" height="20" as="geometry" />
        </mxCell>
        <mxCell id="YQWvjCsICB9NxYi1fDgW-139" value="GSLOT 6" style="rounded=0;whiteSpace=wrap;html=1;fillColor=#dae8fc;strokeColor=#6c8ebf;" vertex="1" parent="1">
          <mxGeometry x="360" y="540" width="80" height="20" as="geometry" />
        </mxCell>
        <mxCell id="YQWvjCsICB9NxYi1fDgW-140" value="GSLOT 1" style="rounded=0;whiteSpace=wrap;html=1;fillColor=#ffe6cc;strokeColor=#d79b00;" vertex="1" parent="1">
          <mxGeometry x="360" y="600" width="80" height="20" as="geometry" />
        </mxCell>
        <mxCell id="YQWvjCsICB9NxYi1fDgW-141" value="GSLOT 3" style="rounded=0;whiteSpace=wrap;html=1;fillColor=#d5e8d4;strokeColor=#82b366;" vertex="1" parent="1">
          <mxGeometry x="360" y="640" width="80" height="20" as="geometry" />
        </mxCell>
        <mxCell id="YQWvjCsICB9NxYi1fDgW-142" value="GSLOT 4" style="rounded=0;whiteSpace=wrap;html=1;fillColor=#f8cecc;strokeColor=#b85450;" vertex="1" parent="1">
          <mxGeometry x="360" y="660" width="80" height="20" as="geometry" />
        </mxCell>
        <mxCell id="YQWvjCsICB9NxYi1fDgW-143" value="GSLOT 2" style="rounded=0;whiteSpace=wrap;html=1;fillColor=#dae8fc;strokeColor=#6c8ebf;" vertex="1" parent="1">
          <mxGeometry x="360" y="620" width="80" height="20" as="geometry" />
        </mxCell>
        <mxCell id="YQWvjCsICB9NxYi1fDgW-144" value="GSLOT 5" style="rounded=0;whiteSpace=wrap;html=1;fillColor=#ffe6cc;strokeColor=#d79b00;" vertex="1" parent="1">
          <mxGeometry x="360" y="680" width="80" height="20" as="geometry" />
        </mxCell>
        <mxCell id="YQWvjCsICB9NxYi1fDgW-145" value="GSLOT 7" style="rounded=0;whiteSpace=wrap;html=1;fillColor=#d5e8d4;strokeColor=#82b366;" vertex="1" parent="1">
          <mxGeometry x="360" y="720" width="80" height="20" as="geometry" />
        </mxCell>
        <mxCell id="YQWvjCsICB9NxYi1fDgW-146" value="GSLOT 8" style="rounded=0;whiteSpace=wrap;html=1;fillColor=#f8cecc;strokeColor=#b85450;" vertex="1" parent="1">
          <mxGeometry x="360" y="740" width="80" height="20" as="geometry" />
        </mxCell>
        <mxCell id="YQWvjCsICB9NxYi1fDgW-147" value="GSLOT 6" style="rounded=0;whiteSpace=wrap;html=1;fillColor=#dae8fc;strokeColor=#6c8ebf;" vertex="1" parent="1">
          <mxGeometry x="360" y="700" width="80" height="20" as="geometry" />
        </mxCell>
        <mxCell id="YQWvjCsICB9NxYi1fDgW-148" value="GSLOT 1" style="rounded=0;whiteSpace=wrap;html=1;fillColor=#647687;strokeColor=#314354;fontColor=#ffffff;" vertex="1" parent="1">
          <mxGeometry x="600" y="120" width="80" height="20" as="geometry" />
        </mxCell>
        <mxCell id="YQWvjCsICB9NxYi1fDgW-149" value="GSLOT 3" style="rounded=0;whiteSpace=wrap;html=1;fillColor=#d5e8d4;strokeColor=#82b366;" vertex="1" parent="1">
          <mxGeometry x="600" y="160" width="80" height="20" as="geometry" />
        </mxCell>
        <mxCell id="YQWvjCsICB9NxYi1fDgW-150" value="GSLOT 4" style="rounded=0;whiteSpace=wrap;html=1;fillColor=#f8cecc;strokeColor=#b85450;" vertex="1" parent="1">
          <mxGeometry x="600" y="180" width="80" height="20" as="geometry" />
        </mxCell>
        <mxCell id="YQWvjCsICB9NxYi1fDgW-151" value="GSLOT 2" style="rounded=0;whiteSpace=wrap;html=1;fillColor=#dae8fc;strokeColor=#6c8ebf;" vertex="1" parent="1">
          <mxGeometry x="600" y="140" width="80" height="20" as="geometry" />
        </mxCell>
        <mxCell id="YQWvjCsICB9NxYi1fDgW-152" value="GSLOT 5" style="rounded=0;whiteSpace=wrap;html=1;fillColor=#ffe6cc;strokeColor=#d79b00;" vertex="1" parent="1">
          <mxGeometry x="600" y="200" width="80" height="20" as="geometry" />
        </mxCell>
        <mxCell id="YQWvjCsICB9NxYi1fDgW-153" value="GSLOT 7" style="rounded=0;whiteSpace=wrap;html=1;fillColor=#d5e8d4;strokeColor=#82b366;" vertex="1" parent="1">
          <mxGeometry x="600" y="240" width="80" height="20" as="geometry" />
        </mxCell>
        <mxCell id="YQWvjCsICB9NxYi1fDgW-154" value="GSLOT 8" style="rounded=0;whiteSpace=wrap;html=1;fillColor=#f8cecc;strokeColor=#b85450;" vertex="1" parent="1">
          <mxGeometry x="600" y="260" width="80" height="20" as="geometry" />
        </mxCell>
        <mxCell id="YQWvjCsICB9NxYi1fDgW-155" value="GSLOT 6" style="rounded=0;whiteSpace=wrap;html=1;fillColor=#dae8fc;strokeColor=#6c8ebf;" vertex="1" parent="1">
          <mxGeometry x="600" y="220" width="80" height="20" as="geometry" />
        </mxCell>
        <mxCell id="YQWvjCsICB9NxYi1fDgW-156" value="GSLOT 1" style="rounded=0;whiteSpace=wrap;html=1;fillColor=#647687;strokeColor=#314354;fontColor=#ffffff;" vertex="1" parent="1">
          <mxGeometry x="600" y="280" width="80" height="20" as="geometry" />
        </mxCell>
        <mxCell id="YQWvjCsICB9NxYi1fDgW-157" value="GSLOT 3" style="rounded=0;whiteSpace=wrap;html=1;fillColor=#d5e8d4;strokeColor=#82b366;" vertex="1" parent="1">
          <mxGeometry x="600" y="320" width="80" height="20" as="geometry" />
        </mxCell>
        <mxCell id="YQWvjCsICB9NxYi1fDgW-158" value="GSLOT 4" style="rounded=0;whiteSpace=wrap;html=1;fillColor=#f8cecc;strokeColor=#b85450;" vertex="1" parent="1">
          <mxGeometry x="600" y="340" width="80" height="20" as="geometry" />
        </mxCell>
        <mxCell id="YQWvjCsICB9NxYi1fDgW-159" value="GSLOT 2" style="rounded=0;whiteSpace=wrap;html=1;fillColor=#dae8fc;strokeColor=#6c8ebf;" vertex="1" parent="1">
          <mxGeometry x="600" y="300" width="80" height="20" as="geometry" />
        </mxCell>
        <mxCell id="YQWvjCsICB9NxYi1fDgW-160" value="GSLOT 5" style="rounded=0;whiteSpace=wrap;html=1;fillColor=#ffe6cc;strokeColor=#d79b00;" vertex="1" parent="1">
          <mxGeometry x="600" y="360" width="80" height="20" as="geometry" />
        </mxCell>
        <mxCell id="YQWvjCsICB9NxYi1fDgW-161" value="GSLOT 7" style="rounded=0;whiteSpace=wrap;html=1;fillColor=#d5e8d4;strokeColor=#82b366;" vertex="1" parent="1">
          <mxGeometry x="600" y="400" width="80" height="20" as="geometry" />
        </mxCell>
        <mxCell id="YQWvjCsICB9NxYi1fDgW-162" value="GSLOT 8" style="rounded=0;whiteSpace=wrap;html=1;fillColor=#f8cecc;strokeColor=#b85450;" vertex="1" parent="1">
          <mxGeometry x="600" y="420" width="80" height="20" as="geometry" />
        </mxCell>
        <mxCell id="YQWvjCsICB9NxYi1fDgW-163" value="GSLOT 6" style="rounded=0;whiteSpace=wrap;html=1;fillColor=#dae8fc;strokeColor=#6c8ebf;" vertex="1" parent="1">
          <mxGeometry x="600" y="380" width="80" height="20" as="geometry" />
        </mxCell>
        <mxCell id="YQWvjCsICB9NxYi1fDgW-164" value="GSLOT 1" style="rounded=0;whiteSpace=wrap;html=1;fillColor=#647687;strokeColor=#314354;fontColor=#ffffff;" vertex="1" parent="1">
          <mxGeometry x="600" y="440" width="80" height="20" as="geometry" />
        </mxCell>
        <mxCell id="YQWvjCsICB9NxYi1fDgW-165" value="GSLOT 3" style="rounded=0;whiteSpace=wrap;html=1;fillColor=#d5e8d4;strokeColor=#82b366;" vertex="1" parent="1">
          <mxGeometry x="600" y="480" width="80" height="20" as="geometry" />
        </mxCell>
        <mxCell id="YQWvjCsICB9NxYi1fDgW-166" value="GSLOT 4" style="rounded=0;whiteSpace=wrap;html=1;fillColor=#f8cecc;strokeColor=#b85450;" vertex="1" parent="1">
          <mxGeometry x="600" y="500" width="80" height="20" as="geometry" />
        </mxCell>
        <mxCell id="YQWvjCsICB9NxYi1fDgW-167" value="GSLOT 2" style="rounded=0;whiteSpace=wrap;html=1;fillColor=#dae8fc;strokeColor=#6c8ebf;" vertex="1" parent="1">
          <mxGeometry x="600" y="460" width="80" height="20" as="geometry" />
        </mxCell>
        <mxCell id="YQWvjCsICB9NxYi1fDgW-168" value="GSLOT 5" style="rounded=0;whiteSpace=wrap;html=1;fillColor=#ffe6cc;strokeColor=#d79b00;" vertex="1" parent="1">
          <mxGeometry x="600" y="520" width="80" height="20" as="geometry" />
        </mxCell>
        <mxCell id="YQWvjCsICB9NxYi1fDgW-169" value="GSLOT 7" style="rounded=0;whiteSpace=wrap;html=1;fillColor=#d5e8d4;strokeColor=#82b366;" vertex="1" parent="1">
          <mxGeometry x="600" y="560" width="80" height="20" as="geometry" />
        </mxCell>
        <mxCell id="YQWvjCsICB9NxYi1fDgW-170" value="GSLOT 8" style="rounded=0;whiteSpace=wrap;html=1;fillColor=#f8cecc;strokeColor=#b85450;" vertex="1" parent="1">
          <mxGeometry x="600" y="580" width="80" height="20" as="geometry" />
        </mxCell>
        <mxCell id="YQWvjCsICB9NxYi1fDgW-171" value="GSLOT 6" style="rounded=0;whiteSpace=wrap;html=1;fillColor=#dae8fc;strokeColor=#6c8ebf;" vertex="1" parent="1">
          <mxGeometry x="600" y="540" width="80" height="20" as="geometry" />
        </mxCell>
        <mxCell id="YQWvjCsICB9NxYi1fDgW-172" value="GSLOT 1" style="rounded=0;whiteSpace=wrap;html=1;fillColor=#647687;strokeColor=#314354;fontColor=#ffffff;" vertex="1" parent="1">
          <mxGeometry x="600" y="600" width="80" height="20" as="geometry" />
        </mxCell>
        <mxCell id="YQWvjCsICB9NxYi1fDgW-173" value="GSLOT 3" style="rounded=0;whiteSpace=wrap;html=1;fillColor=#d5e8d4;strokeColor=#82b366;" vertex="1" parent="1">
          <mxGeometry x="600" y="640" width="80" height="20" as="geometry" />
        </mxCell>
        <mxCell id="YQWvjCsICB9NxYi1fDgW-174" value="GSLOT 4" style="rounded=0;whiteSpace=wrap;html=1;fillColor=#f8cecc;strokeColor=#b85450;" vertex="1" parent="1">
          <mxGeometry x="600" y="660" width="80" height="20" as="geometry" />
        </mxCell>
        <mxCell id="YQWvjCsICB9NxYi1fDgW-175" value="GSLOT 2" style="rounded=0;whiteSpace=wrap;html=1;fillColor=#dae8fc;strokeColor=#6c8ebf;" vertex="1" parent="1">
          <mxGeometry x="600" y="620" width="80" height="20" as="geometry" />
        </mxCell>
        <mxCell id="YQWvjCsICB9NxYi1fDgW-176" value="GSLOT 5" style="rounded=0;whiteSpace=wrap;html=1;fillColor=#ffe6cc;strokeColor=#d79b00;" vertex="1" parent="1">
          <mxGeometry x="600" y="680" width="80" height="20" as="geometry" />
        </mxCell>
        <mxCell id="YQWvjCsICB9NxYi1fDgW-177" value="GSLOT 7" style="rounded=0;whiteSpace=wrap;html=1;fillColor=#d5e8d4;strokeColor=#82b366;" vertex="1" parent="1">
          <mxGeometry x="600" y="720" width="80" height="20" as="geometry" />
        </mxCell>
        <mxCell id="YQWvjCsICB9NxYi1fDgW-178" value="GSLOT 8" style="rounded=0;whiteSpace=wrap;html=1;fillColor=#f8cecc;strokeColor=#b85450;" vertex="1" parent="1">
          <mxGeometry x="600" y="740" width="80" height="20" as="geometry" />
        </mxCell>
        <mxCell id="YQWvjCsICB9NxYi1fDgW-179" value="GSLOT 6" style="rounded=0;whiteSpace=wrap;html=1;fillColor=#dae8fc;strokeColor=#6c8ebf;" vertex="1" parent="1">
          <mxGeometry x="600" y="700" width="80" height="20" as="geometry" />
        </mxCell>
        <mxCell id="YQWvjCsICB9NxYi1fDgW-180" value="GSLOT 1" style="rounded=0;whiteSpace=wrap;html=1;fillColor=#ffe6cc;strokeColor=#d79b00;" vertex="1" parent="1">
          <mxGeometry x="240" y="120" width="80" height="20" as="geometry" />
        </mxCell>
        <mxCell id="YQWvjCsICB9NxYi1fDgW-181" value="GSLOT 1" style="rounded=0;whiteSpace=wrap;html=1;fillColor=#ffe6cc;strokeColor=#d79b00;" vertex="1" parent="1">
          <mxGeometry x="240" y="140" width="80" height="20" as="geometry" />
        </mxCell>
        <mxCell id="YQWvjCsICB9NxYi1fDgW-182" value="GSLOT 2" style="rounded=0;whiteSpace=wrap;html=1;fillColor=#dae8fc;strokeColor=#6c8ebf;" vertex="1" parent="1">
          <mxGeometry x="240" y="240" width="80" height="20" as="geometry" />
        </mxCell>
        <mxCell id="YQWvjCsICB9NxYi1fDgW-183" value="GSLOT 2" style="rounded=0;whiteSpace=wrap;html=1;fillColor=#dae8fc;strokeColor=#6c8ebf;" vertex="1" parent="1">
          <mxGeometry x="240" y="260" width="80" height="20" as="geometry" />
        </mxCell>
        <mxCell id="YQWvjCsICB9NxYi1fDgW-184" value="GSLOT 3" style="rounded=0;whiteSpace=wrap;html=1;fillColor=#d5e8d4;strokeColor=#82b366;" vertex="1" parent="1">
          <mxGeometry x="240" y="280" width="80" height="20" as="geometry" />
        </mxCell>
        <mxCell id="YQWvjCsICB9NxYi1fDgW-185" value="GSLOT 3" style="rounded=0;whiteSpace=wrap;html=1;fillColor=#d5e8d4;strokeColor=#82b366;" vertex="1" parent="1">
          <mxGeometry x="240" y="300" width="80" height="20" as="geometry" />
        </mxCell>
        <mxCell id="YQWvjCsICB9NxYi1fDgW-186" value="GSLOT 4" style="rounded=0;whiteSpace=wrap;html=1;fillColor=#f8cecc;strokeColor=#b85450;" vertex="1" parent="1">
          <mxGeometry x="240" y="360" width="80" height="20" as="geometry" />
        </mxCell>
        <mxCell id="YQWvjCsICB9NxYi1fDgW-187" value="GSLOT 1" style="rounded=0;whiteSpace=wrap;html=1;fillColor=#ffe6cc;strokeColor=#d79b00;" vertex="1" parent="1">
          <mxGeometry x="240" y="160" width="80" height="20" as="geometry" />
        </mxCell>
        <mxCell id="YQWvjCsICB9NxYi1fDgW-188" value="GSLOT 1" style="rounded=0;whiteSpace=wrap;html=1;fillColor=#ffe6cc;strokeColor=#d79b00;" vertex="1" parent="1">
          <mxGeometry x="240" y="180" width="80" height="20" as="geometry" />
        </mxCell>
        <mxCell id="YQWvjCsICB9NxYi1fDgW-189" value="GSLOT 2" style="rounded=0;whiteSpace=wrap;html=1;fillColor=#dae8fc;strokeColor=#6c8ebf;" vertex="1" parent="1">
          <mxGeometry x="240" y="200" width="80" height="20" as="geometry" />
        </mxCell>
        <mxCell id="YQWvjCsICB9NxYi1fDgW-190" value="GSLOT 2" style="rounded=0;whiteSpace=wrap;html=1;fillColor=#dae8fc;strokeColor=#6c8ebf;" vertex="1" parent="1">
          <mxGeometry x="240" y="220" width="80" height="20" as="geometry" />
        </mxCell>
        <mxCell id="YQWvjCsICB9NxYi1fDgW-191" value="GSLOT 3" style="rounded=0;whiteSpace=wrap;html=1;fillColor=#d5e8d4;strokeColor=#82b366;" vertex="1" parent="1">
          <mxGeometry x="240" y="320" width="80" height="20" as="geometry" />
        </mxCell>
        <mxCell id="YQWvjCsICB9NxYi1fDgW-192" value="GSLOT 3" style="rounded=0;whiteSpace=wrap;html=1;fillColor=#d5e8d4;strokeColor=#82b366;" vertex="1" parent="1">
          <mxGeometry x="240" y="340" width="80" height="20" as="geometry" />
        </mxCell>
        <mxCell id="YQWvjCsICB9NxYi1fDgW-193" value="GSLOT 4" style="rounded=0;whiteSpace=wrap;html=1;fillColor=#f8cecc;strokeColor=#b85450;" vertex="1" parent="1">
          <mxGeometry x="240" y="380" width="80" height="20" as="geometry" />
        </mxCell>
        <mxCell id="YQWvjCsICB9NxYi1fDgW-194" value="GSLOT 4" style="rounded=0;whiteSpace=wrap;html=1;fillColor=#f8cecc;strokeColor=#b85450;" vertex="1" parent="1">
          <mxGeometry x="240" y="400" width="80" height="20" as="geometry" />
        </mxCell>
        <mxCell id="YQWvjCsICB9NxYi1fDgW-195" value="GSLOT 4" style="rounded=0;whiteSpace=wrap;html=1;fillColor=#f8cecc;strokeColor=#b85450;" vertex="1" parent="1">
          <mxGeometry x="240" y="420" width="80" height="20" as="geometry" />
        </mxCell>
        <mxCell id="YQWvjCsICB9NxYi1fDgW-196" value="GSLOT 5" style="rounded=0;whiteSpace=wrap;html=1;fillColor=#ffe6cc;strokeColor=#d79b00;" vertex="1" parent="1">
          <mxGeometry x="240" y="440" width="80" height="20" as="geometry" />
        </mxCell>
        <mxCell id="YQWvjCsICB9NxYi1fDgW-197" value="GSLOT 5" style="rounded=0;whiteSpace=wrap;html=1;fillColor=#ffe6cc;strokeColor=#d79b00;" vertex="1" parent="1">
          <mxGeometry x="240" y="460" width="80" height="20" as="geometry" />
        </mxCell>
        <mxCell id="YQWvjCsICB9NxYi1fDgW-198" value="GSLOT 6" style="rounded=0;whiteSpace=wrap;html=1;fillColor=#dae8fc;strokeColor=#6c8ebf;" vertex="1" parent="1">
          <mxGeometry x="240" y="560" width="80" height="20" as="geometry" />
        </mxCell>
        <mxCell id="YQWvjCsICB9NxYi1fDgW-199" value="GSLOT 6" style="rounded=0;whiteSpace=wrap;html=1;fillColor=#dae8fc;strokeColor=#6c8ebf;" vertex="1" parent="1">
          <mxGeometry x="240" y="580" width="80" height="20" as="geometry" />
        </mxCell>
        <mxCell id="YQWvjCsICB9NxYi1fDgW-200" value="GSLOT 7" style="rounded=0;whiteSpace=wrap;html=1;fillColor=#d5e8d4;strokeColor=#82b366;" vertex="1" parent="1">
          <mxGeometry x="240" y="600" width="80" height="20" as="geometry" />
        </mxCell>
        <mxCell id="YQWvjCsICB9NxYi1fDgW-201" value="GSLOT 7" style="rounded=0;whiteSpace=wrap;html=1;fillColor=#d5e8d4;strokeColor=#82b366;" vertex="1" parent="1">
          <mxGeometry x="240" y="620" width="80" height="20" as="geometry" />
        </mxCell>
        <mxCell id="YQWvjCsICB9NxYi1fDgW-202" value="GSLOT 8" style="rounded=0;whiteSpace=wrap;html=1;fillColor=#f8cecc;strokeColor=#b85450;" vertex="1" parent="1">
          <mxGeometry x="240" y="680" width="80" height="20" as="geometry" />
        </mxCell>
        <mxCell id="YQWvjCsICB9NxYi1fDgW-203" value="GSLOT 5" style="rounded=0;whiteSpace=wrap;html=1;fillColor=#ffe6cc;strokeColor=#d79b00;" vertex="1" parent="1">
          <mxGeometry x="240" y="480" width="80" height="20" as="geometry" />
        </mxCell>
        <mxCell id="YQWvjCsICB9NxYi1fDgW-204" value="GSLOT 5" style="rounded=0;whiteSpace=wrap;html=1;fillColor=#ffe6cc;strokeColor=#d79b00;" vertex="1" parent="1">
          <mxGeometry x="240" y="500" width="80" height="20" as="geometry" />
        </mxCell>
        <mxCell id="YQWvjCsICB9NxYi1fDgW-205" value="GSLOT 6" style="rounded=0;whiteSpace=wrap;html=1;fillColor=#dae8fc;strokeColor=#6c8ebf;" vertex="1" parent="1">
          <mxGeometry x="240" y="520" width="80" height="20" as="geometry" />
        </mxCell>
        <mxCell id="YQWvjCsICB9NxYi1fDgW-206" value="GSLOT 6" style="rounded=0;whiteSpace=wrap;html=1;fillColor=#dae8fc;strokeColor=#6c8ebf;" vertex="1" parent="1">
          <mxGeometry x="240" y="540" width="80" height="20" as="geometry" />
        </mxCell>
        <mxCell id="YQWvjCsICB9NxYi1fDgW-207" value="GSLOT 7" style="rounded=0;whiteSpace=wrap;html=1;fillColor=#d5e8d4;strokeColor=#82b366;" vertex="1" parent="1">
          <mxGeometry x="240" y="640" width="80" height="20" as="geometry" />
        </mxCell>
        <mxCell id="YQWvjCsICB9NxYi1fDgW-208" value="GSLOT 7" style="rounded=0;whiteSpace=wrap;html=1;fillColor=#d5e8d4;strokeColor=#82b366;" vertex="1" parent="1">
          <mxGeometry x="240" y="660" width="80" height="20" as="geometry" />
        </mxCell>
        <mxCell id="YQWvjCsICB9NxYi1fDgW-209" value="GSLOT 8" style="rounded=0;whiteSpace=wrap;html=1;fillColor=#f8cecc;strokeColor=#b85450;" vertex="1" parent="1">
          <mxGeometry x="240" y="700" width="80" height="20" as="geometry" />
        </mxCell>
        <mxCell id="YQWvjCsICB9NxYi1fDgW-210" value="GSLOT 8" style="rounded=0;whiteSpace=wrap;html=1;fillColor=#f8cecc;strokeColor=#b85450;" vertex="1" parent="1">
          <mxGeometry x="240" y="720" width="80" height="20" as="geometry" />
        </mxCell>
        <mxCell id="YQWvjCsICB9NxYi1fDgW-211" value="GSLOT 8" style="rounded=0;whiteSpace=wrap;html=1;fillColor=#f8cecc;strokeColor=#b85450;" vertex="1" parent="1">
          <mxGeometry x="240" y="740" width="80" height="20" as="geometry" />
        </mxCell>
        <mxCell id="YQWvjCsICB9NxYi1fDgW-214" value="GSLOT 1" style="rounded=0;whiteSpace=wrap;html=1;fillColor=#ffe6cc;strokeColor=#d79b00;" vertex="1" parent="1">
          <mxGeometry x="440" y="120" width="80" height="20" as="geometry" />
        </mxCell>
        <mxCell id="YQWvjCsICB9NxYi1fDgW-215" value="GSLOT 3" style="rounded=0;whiteSpace=wrap;html=1;fillColor=#d5e8d4;strokeColor=#82b366;" vertex="1" parent="1">
          <mxGeometry x="440" y="160" width="80" height="20" as="geometry" />
        </mxCell>
        <mxCell id="YQWvjCsICB9NxYi1fDgW-216" value="GSLOT 4" style="rounded=0;whiteSpace=wrap;html=1;fillColor=#f8cecc;strokeColor=#b85450;" vertex="1" parent="1">
          <mxGeometry x="440" y="180" width="80" height="20" as="geometry" />
        </mxCell>
        <mxCell id="YQWvjCsICB9NxYi1fDgW-217" value="GSLOT 2" style="rounded=0;whiteSpace=wrap;html=1;fillColor=#dae8fc;strokeColor=#6c8ebf;" vertex="1" parent="1">
          <mxGeometry x="440" y="140" width="80" height="20" as="geometry" />
        </mxCell>
        <mxCell id="YQWvjCsICB9NxYi1fDgW-218" value="GSLOT 5" style="rounded=0;whiteSpace=wrap;html=1;fillColor=#ffe6cc;strokeColor=#d79b00;" vertex="1" parent="1">
          <mxGeometry x="440" y="200" width="80" height="20" as="geometry" />
        </mxCell>
        <mxCell id="YQWvjCsICB9NxYi1fDgW-219" value="GSLOT 7" style="rounded=0;whiteSpace=wrap;html=1;fillColor=#d5e8d4;strokeColor=#82b366;" vertex="1" parent="1">
          <mxGeometry x="440" y="240" width="80" height="20" as="geometry" />
        </mxCell>
        <mxCell id="YQWvjCsICB9NxYi1fDgW-220" value="GSLOT 8" style="rounded=0;whiteSpace=wrap;html=1;fillColor=#f8cecc;strokeColor=#b85450;" vertex="1" parent="1">
          <mxGeometry x="440" y="260" width="80" height="20" as="geometry" />
        </mxCell>
        <mxCell id="YQWvjCsICB9NxYi1fDgW-221" value="GSLOT 6" style="rounded=0;whiteSpace=wrap;html=1;fillColor=#dae8fc;strokeColor=#6c8ebf;" vertex="1" parent="1">
          <mxGeometry x="440" y="220" width="80" height="20" as="geometry" />
        </mxCell>
        <mxCell id="YQWvjCsICB9NxYi1fDgW-222" value="GSLOT 1" style="rounded=0;whiteSpace=wrap;html=1;fillColor=#ffe6cc;strokeColor=#d79b00;" vertex="1" parent="1">
          <mxGeometry x="440" y="280" width="80" height="20" as="geometry" />
        </mxCell>
        <mxCell id="YQWvjCsICB9NxYi1fDgW-223" value="GSLOT 3" style="rounded=0;whiteSpace=wrap;html=1;fillColor=#d5e8d4;strokeColor=#82b366;" vertex="1" parent="1">
          <mxGeometry x="440" y="320" width="80" height="20" as="geometry" />
        </mxCell>
        <mxCell id="YQWvjCsICB9NxYi1fDgW-224" value="GSLOT 4" style="rounded=0;whiteSpace=wrap;html=1;fillColor=#f8cecc;strokeColor=#b85450;" vertex="1" parent="1">
          <mxGeometry x="440" y="340" width="80" height="20" as="geometry" />
        </mxCell>
        <mxCell id="YQWvjCsICB9NxYi1fDgW-225" value="GSLOT 2" style="rounded=0;whiteSpace=wrap;html=1;fillColor=#dae8fc;strokeColor=#6c8ebf;" vertex="1" parent="1">
          <mxGeometry x="440" y="300" width="80" height="20" as="geometry" />
        </mxCell>
        <mxCell id="YQWvjCsICB9NxYi1fDgW-226" value="GSLOT 5" style="rounded=0;whiteSpace=wrap;html=1;fillColor=#ffe6cc;strokeColor=#d79b00;" vertex="1" parent="1">
          <mxGeometry x="440" y="360" width="80" height="20" as="geometry" />
        </mxCell>
        <mxCell id="YQWvjCsICB9NxYi1fDgW-227" value="GSLOT 7" style="rounded=0;whiteSpace=wrap;html=1;fillColor=#d5e8d4;strokeColor=#82b366;" vertex="1" parent="1">
          <mxGeometry x="440" y="400" width="80" height="20" as="geometry" />
        </mxCell>
        <mxCell id="YQWvjCsICB9NxYi1fDgW-228" value="GSLOT 8" style="rounded=0;whiteSpace=wrap;html=1;fillColor=#f8cecc;strokeColor=#b85450;" vertex="1" parent="1">
          <mxGeometry x="440" y="420" width="80" height="20" as="geometry" />
        </mxCell>
        <mxCell id="YQWvjCsICB9NxYi1fDgW-229" value="GSLOT 6" style="rounded=0;whiteSpace=wrap;html=1;fillColor=#dae8fc;strokeColor=#6c8ebf;" vertex="1" parent="1">
          <mxGeometry x="440" y="380" width="80" height="20" as="geometry" />
        </mxCell>
        <mxCell id="YQWvjCsICB9NxYi1fDgW-230" value="GSLOT 1" style="rounded=0;whiteSpace=wrap;html=1;fillColor=#ffe6cc;strokeColor=#d79b00;" vertex="1" parent="1">
          <mxGeometry x="440" y="440" width="80" height="20" as="geometry" />
        </mxCell>
        <mxCell id="YQWvjCsICB9NxYi1fDgW-231" value="GSLOT 3" style="rounded=0;whiteSpace=wrap;html=1;fillColor=#d5e8d4;strokeColor=#82b366;" vertex="1" parent="1">
          <mxGeometry x="440" y="480" width="80" height="20" as="geometry" />
        </mxCell>
        <mxCell id="YQWvjCsICB9NxYi1fDgW-232" value="GSLOT 4" style="rounded=0;whiteSpace=wrap;html=1;fillColor=#f8cecc;strokeColor=#b85450;" vertex="1" parent="1">
          <mxGeometry x="440" y="500" width="80" height="20" as="geometry" />
        </mxCell>
        <mxCell id="YQWvjCsICB9NxYi1fDgW-233" value="GSLOT 2" style="rounded=0;whiteSpace=wrap;html=1;fillColor=#dae8fc;strokeColor=#6c8ebf;" vertex="1" parent="1">
          <mxGeometry x="440" y="460" width="80" height="20" as="geometry" />
        </mxCell>
        <mxCell id="YQWvjCsICB9NxYi1fDgW-234" value="GSLOT 5" style="rounded=0;whiteSpace=wrap;html=1;fillColor=#ffe6cc;strokeColor=#d79b00;" vertex="1" parent="1">
          <mxGeometry x="440" y="520" width="80" height="20" as="geometry" />
        </mxCell>
        <mxCell id="YQWvjCsICB9NxYi1fDgW-235" value="GSLOT 7" style="rounded=0;whiteSpace=wrap;html=1;fillColor=#d5e8d4;strokeColor=#82b366;" vertex="1" parent="1">
          <mxGeometry x="440" y="560" width="80" height="20" as="geometry" />
        </mxCell>
        <mxCell id="YQWvjCsICB9NxYi1fDgW-236" value="GSLOT 8" style="rounded=0;whiteSpace=wrap;html=1;fillColor=#f8cecc;strokeColor=#b85450;" vertex="1" parent="1">
          <mxGeometry x="440" y="580" width="80" height="20" as="geometry" />
        </mxCell>
        <mxCell id="YQWvjCsICB9NxYi1fDgW-237" value="GSLOT 6" style="rounded=0;whiteSpace=wrap;html=1;fillColor=#dae8fc;strokeColor=#6c8ebf;" vertex="1" parent="1">
          <mxGeometry x="440" y="540" width="80" height="20" as="geometry" />
        </mxCell>
        <mxCell id="YQWvjCsICB9NxYi1fDgW-238" value="GSLOT 1" style="rounded=0;whiteSpace=wrap;html=1;fillColor=#ffe6cc;strokeColor=#d79b00;" vertex="1" parent="1">
          <mxGeometry x="440" y="600" width="80" height="20" as="geometry" />
        </mxCell>
        <mxCell id="YQWvjCsICB9NxYi1fDgW-239" value="GSLOT 3" style="rounded=0;whiteSpace=wrap;html=1;fillColor=#d5e8d4;strokeColor=#82b366;" vertex="1" parent="1">
          <mxGeometry x="440" y="640" width="80" height="20" as="geometry" />
        </mxCell>
        <mxCell id="YQWvjCsICB9NxYi1fDgW-240" value="GSLOT 4" style="rounded=0;whiteSpace=wrap;html=1;fillColor=#f8cecc;strokeColor=#b85450;" vertex="1" parent="1">
          <mxGeometry x="440" y="660" width="80" height="20" as="geometry" />
        </mxCell>
        <mxCell id="YQWvjCsICB9NxYi1fDgW-241" value="GSLOT 2" style="rounded=0;whiteSpace=wrap;html=1;fillColor=#dae8fc;strokeColor=#6c8ebf;" vertex="1" parent="1">
          <mxGeometry x="440" y="620" width="80" height="20" as="geometry" />
        </mxCell>
        <mxCell id="YQWvjCsICB9NxYi1fDgW-242" value="GSLOT 5" style="rounded=0;whiteSpace=wrap;html=1;fillColor=#ffe6cc;strokeColor=#d79b00;" vertex="1" parent="1">
          <mxGeometry x="440" y="680" width="80" height="20" as="geometry" />
        </mxCell>
        <mxCell id="YQWvjCsICB9NxYi1fDgW-243" value="GSLOT 7" style="rounded=0;whiteSpace=wrap;html=1;fillColor=#d5e8d4;strokeColor=#82b366;" vertex="1" parent="1">
          <mxGeometry x="440" y="720" width="80" height="20" as="geometry" />
        </mxCell>
        <mxCell id="YQWvjCsICB9NxYi1fDgW-244" value="GSLOT 8" style="rounded=0;whiteSpace=wrap;html=1;fillColor=#f8cecc;strokeColor=#b85450;" vertex="1" parent="1">
          <mxGeometry x="440" y="740" width="80" height="20" as="geometry" />
        </mxCell>
        <mxCell id="YQWvjCsICB9NxYi1fDgW-245" value="GSLOT 6" style="rounded=0;whiteSpace=wrap;html=1;fillColor=#dae8fc;strokeColor=#6c8ebf;" vertex="1" parent="1">
          <mxGeometry x="440" y="700" width="80" height="20" as="geometry" />
        </mxCell>
        <mxCell id="YQWvjCsICB9NxYi1fDgW-246" value="GSLOT 1" style="rounded=0;whiteSpace=wrap;html=1;fillColor=#647687;strokeColor=#314354;fontColor=#ffffff;" vertex="1" parent="1">
          <mxGeometry x="690" y="120" width="80" height="20" as="geometry" />
        </mxCell>
        <mxCell id="YQWvjCsICB9NxYi1fDgW-247" value="GSLOT 3" style="rounded=0;whiteSpace=wrap;html=1;fillColor=#d5e8d4;strokeColor=#82b366;" vertex="1" parent="1">
          <mxGeometry x="690" y="160" width="80" height="20" as="geometry" />
        </mxCell>
        <mxCell id="YQWvjCsICB9NxYi1fDgW-248" value="GSLOT 4" style="rounded=0;whiteSpace=wrap;html=1;fillColor=#f8cecc;strokeColor=#b85450;" vertex="1" parent="1">
          <mxGeometry x="690" y="180" width="80" height="20" as="geometry" />
        </mxCell>
        <mxCell id="YQWvjCsICB9NxYi1fDgW-249" value="GSLOT 2" style="rounded=0;whiteSpace=wrap;html=1;fillColor=#dae8fc;strokeColor=#6c8ebf;" vertex="1" parent="1">
          <mxGeometry x="690" y="140" width="80" height="20" as="geometry" />
        </mxCell>
        <mxCell id="YQWvjCsICB9NxYi1fDgW-250" value="GSLOT 5" style="rounded=0;whiteSpace=wrap;html=1;fillColor=#ffe6cc;strokeColor=#d79b00;" vertex="1" parent="1">
          <mxGeometry x="690" y="200" width="80" height="20" as="geometry" />
        </mxCell>
        <mxCell id="YQWvjCsICB9NxYi1fDgW-251" value="GSLOT 7" style="rounded=0;whiteSpace=wrap;html=1;fillColor=#d5e8d4;strokeColor=#82b366;" vertex="1" parent="1">
          <mxGeometry x="690" y="240" width="80" height="20" as="geometry" />
        </mxCell>
        <mxCell id="YQWvjCsICB9NxYi1fDgW-252" value="GSLOT 8" style="rounded=0;whiteSpace=wrap;html=1;fillColor=#f8cecc;strokeColor=#b85450;" vertex="1" parent="1">
          <mxGeometry x="690" y="260" width="80" height="20" as="geometry" />
        </mxCell>
        <mxCell id="YQWvjCsICB9NxYi1fDgW-253" value="GSLOT 6" style="rounded=0;whiteSpace=wrap;html=1;fillColor=#dae8fc;strokeColor=#6c8ebf;" vertex="1" parent="1">
          <mxGeometry x="690" y="220" width="80" height="20" as="geometry" />
        </mxCell>
        <mxCell id="YQWvjCsICB9NxYi1fDgW-254" value="GSLOT 1" style="rounded=0;whiteSpace=wrap;html=1;fillColor=#647687;strokeColor=#314354;fontColor=#ffffff;" vertex="1" parent="1">
          <mxGeometry x="690" y="280" width="80" height="20" as="geometry" />
        </mxCell>
        <mxCell id="YQWvjCsICB9NxYi1fDgW-255" value="GSLOT 3" style="rounded=0;whiteSpace=wrap;html=1;fillColor=#d5e8d4;strokeColor=#82b366;" vertex="1" parent="1">
          <mxGeometry x="690" y="320" width="80" height="20" as="geometry" />
        </mxCell>
        <mxCell id="YQWvjCsICB9NxYi1fDgW-256" value="GSLOT 4" style="rounded=0;whiteSpace=wrap;html=1;fillColor=#f8cecc;strokeColor=#b85450;" vertex="1" parent="1">
          <mxGeometry x="690" y="340" width="80" height="20" as="geometry" />
        </mxCell>
        <mxCell id="YQWvjCsICB9NxYi1fDgW-257" value="GSLOT 2" style="rounded=0;whiteSpace=wrap;html=1;fillColor=#dae8fc;strokeColor=#6c8ebf;" vertex="1" parent="1">
          <mxGeometry x="690" y="300" width="80" height="20" as="geometry" />
        </mxCell>
        <mxCell id="YQWvjCsICB9NxYi1fDgW-258" value="GSLOT 5" style="rounded=0;whiteSpace=wrap;html=1;fillColor=#ffe6cc;strokeColor=#d79b00;" vertex="1" parent="1">
          <mxGeometry x="690" y="360" width="80" height="20" as="geometry" />
        </mxCell>
        <mxCell id="YQWvjCsICB9NxYi1fDgW-259" value="GSLOT 7" style="rounded=0;whiteSpace=wrap;html=1;fillColor=#d5e8d4;strokeColor=#82b366;" vertex="1" parent="1">
          <mxGeometry x="690" y="400" width="80" height="20" as="geometry" />
        </mxCell>
        <mxCell id="YQWvjCsICB9NxYi1fDgW-260" value="GSLOT 8" style="rounded=0;whiteSpace=wrap;html=1;fillColor=#f8cecc;strokeColor=#b85450;" vertex="1" parent="1">
          <mxGeometry x="690" y="420" width="80" height="20" as="geometry" />
        </mxCell>
        <mxCell id="YQWvjCsICB9NxYi1fDgW-261" value="GSLOT 6" style="rounded=0;whiteSpace=wrap;html=1;fillColor=#dae8fc;strokeColor=#6c8ebf;" vertex="1" parent="1">
          <mxGeometry x="690" y="380" width="80" height="20" as="geometry" />
        </mxCell>
        <mxCell id="YQWvjCsICB9NxYi1fDgW-262" value="GSLOT 1" style="rounded=0;whiteSpace=wrap;html=1;fillColor=#647687;strokeColor=#314354;fontColor=#ffffff;" vertex="1" parent="1">
          <mxGeometry x="690" y="440" width="80" height="20" as="geometry" />
        </mxCell>
        <mxCell id="YQWvjCsICB9NxYi1fDgW-263" value="GSLOT 3" style="rounded=0;whiteSpace=wrap;html=1;fillColor=#d5e8d4;strokeColor=#82b366;" vertex="1" parent="1">
          <mxGeometry x="690" y="480" width="80" height="20" as="geometry" />
        </mxCell>
        <mxCell id="YQWvjCsICB9NxYi1fDgW-264" value="GSLOT 4" style="rounded=0;whiteSpace=wrap;html=1;fillColor=#f8cecc;strokeColor=#b85450;" vertex="1" parent="1">
          <mxGeometry x="690" y="500" width="80" height="20" as="geometry" />
        </mxCell>
        <mxCell id="YQWvjCsICB9NxYi1fDgW-265" value="GSLOT 2" style="rounded=0;whiteSpace=wrap;html=1;fillColor=#dae8fc;strokeColor=#6c8ebf;" vertex="1" parent="1">
          <mxGeometry x="690" y="460" width="80" height="20" as="geometry" />
        </mxCell>
        <mxCell id="YQWvjCsICB9NxYi1fDgW-266" value="GSLOT 5" style="rounded=0;whiteSpace=wrap;html=1;fillColor=#ffe6cc;strokeColor=#d79b00;" vertex="1" parent="1">
          <mxGeometry x="690" y="520" width="80" height="20" as="geometry" />
        </mxCell>
        <mxCell id="YQWvjCsICB9NxYi1fDgW-267" value="GSLOT 7" style="rounded=0;whiteSpace=wrap;html=1;fillColor=#d5e8d4;strokeColor=#82b366;" vertex="1" parent="1">
          <mxGeometry x="690" y="560" width="80" height="20" as="geometry" />
        </mxCell>
        <mxCell id="YQWvjCsICB9NxYi1fDgW-268" value="GSLOT 8" style="rounded=0;whiteSpace=wrap;html=1;fillColor=#f8cecc;strokeColor=#b85450;" vertex="1" parent="1">
          <mxGeometry x="690" y="580" width="80" height="20" as="geometry" />
        </mxCell>
        <mxCell id="YQWvjCsICB9NxYi1fDgW-269" value="GSLOT 6" style="rounded=0;whiteSpace=wrap;html=1;fillColor=#dae8fc;strokeColor=#6c8ebf;" vertex="1" parent="1">
          <mxGeometry x="690" y="540" width="80" height="20" as="geometry" />
        </mxCell>
        <mxCell id="YQWvjCsICB9NxYi1fDgW-270" value="GSLOT 1" style="rounded=0;whiteSpace=wrap;html=1;fillColor=#647687;strokeColor=#314354;fontColor=#ffffff;" vertex="1" parent="1">
          <mxGeometry x="690" y="600" width="80" height="20" as="geometry" />
        </mxCell>
        <mxCell id="YQWvjCsICB9NxYi1fDgW-271" value="GSLOT 3" style="rounded=0;whiteSpace=wrap;html=1;fillColor=#d5e8d4;strokeColor=#82b366;" vertex="1" parent="1">
          <mxGeometry x="690" y="640" width="80" height="20" as="geometry" />
        </mxCell>
        <mxCell id="YQWvjCsICB9NxYi1fDgW-272" value="GSLOT 4" style="rounded=0;whiteSpace=wrap;html=1;fillColor=#f8cecc;strokeColor=#b85450;" vertex="1" parent="1">
          <mxGeometry x="690" y="660" width="80" height="20" as="geometry" />
        </mxCell>
        <mxCell id="YQWvjCsICB9NxYi1fDgW-273" value="GSLOT 2" style="rounded=0;whiteSpace=wrap;html=1;fillColor=#dae8fc;strokeColor=#6c8ebf;" vertex="1" parent="1">
          <mxGeometry x="690" y="620" width="80" height="20" as="geometry" />
        </mxCell>
        <mxCell id="YQWvjCsICB9NxYi1fDgW-274" value="GSLOT 5" style="rounded=0;whiteSpace=wrap;html=1;fillColor=#ffe6cc;strokeColor=#d79b00;" vertex="1" parent="1">
          <mxGeometry x="690" y="680" width="80" height="20" as="geometry" />
        </mxCell>
        <mxCell id="YQWvjCsICB9NxYi1fDgW-275" value="GSLOT 7" style="rounded=0;whiteSpace=wrap;html=1;fillColor=#d5e8d4;strokeColor=#82b366;" vertex="1" parent="1">
          <mxGeometry x="690" y="720" width="80" height="20" as="geometry" />
        </mxCell>
        <mxCell id="YQWvjCsICB9NxYi1fDgW-276" value="GSLOT 8" style="rounded=0;whiteSpace=wrap;html=1;fillColor=#f8cecc;strokeColor=#b85450;" vertex="1" parent="1">
          <mxGeometry x="690" y="740" width="80" height="20" as="geometry" />
        </mxCell>
        <mxCell id="YQWvjCsICB9NxYi1fDgW-277" value="GSLOT 6" style="rounded=0;whiteSpace=wrap;html=1;fillColor=#dae8fc;strokeColor=#6c8ebf;" vertex="1" parent="1">
          <mxGeometry x="690" y="700" width="80" height="20" as="geometry" />
        </mxCell>
        <mxCell id="YQWvjCsICB9NxYi1fDgW-279" value="0-127" style="text;html=1;align=center;verticalAlign=middle;resizable=0;points=[];autosize=1;strokeColor=none;fillColor=none;" vertex="1" parent="1">
          <mxGeometry x="615" y="90" width="50" height="30" as="geometry" />
        </mxCell>
        <mxCell id="YQWvjCsICB9NxYi1fDgW-280" value="128-255" style="text;html=1;align=center;verticalAlign=middle;resizable=0;points=[];autosize=1;strokeColor=none;fillColor=none;" vertex="1" parent="1">
          <mxGeometry x="690" y="90" width="70" height="30" as="geometry" />
        </mxCell>
        <mxCell id="YQWvjCsICB9NxYi1fDgW-281" value="GSLOT 2" style="rounded=0;whiteSpace=wrap;html=1;fillColor=#0050ef;strokeColor=#001DBC;fontColor=#ffffff;" vertex="1" parent="1">
          <mxGeometry x="820" y="120" width="80" height="20" as="geometry" />
        </mxCell>
        <mxCell id="YQWvjCsICB9NxYi1fDgW-282" value="GSLOT 3" style="rounded=0;whiteSpace=wrap;html=1;fillColor=#d5e8d4;strokeColor=#82b366;" vertex="1" parent="1">
          <mxGeometry x="820" y="160" width="80" height="20" as="geometry" />
        </mxCell>
        <mxCell id="YQWvjCsICB9NxYi1fDgW-283" value="GSLOT 4" style="rounded=0;whiteSpace=wrap;html=1;fillColor=#f8cecc;strokeColor=#b85450;" vertex="1" parent="1">
          <mxGeometry x="820" y="180" width="80" height="20" as="geometry" />
        </mxCell>
        <mxCell id="YQWvjCsICB9NxYi1fDgW-284" value="GSLOT 2" style="rounded=0;whiteSpace=wrap;html=1;fillColor=#647687;strokeColor=#314354;fontColor=#ffffff;" vertex="1" parent="1">
          <mxGeometry x="820" y="140" width="80" height="20" as="geometry" />
        </mxCell>
        <mxCell id="YQWvjCsICB9NxYi1fDgW-285" value="GSLOT 5" style="rounded=0;whiteSpace=wrap;html=1;fillColor=#ffe6cc;strokeColor=#d79b00;" vertex="1" parent="1">
          <mxGeometry x="820" y="200" width="80" height="20" as="geometry" />
        </mxCell>
        <mxCell id="YQWvjCsICB9NxYi1fDgW-286" value="GSLOT 7" style="rounded=0;whiteSpace=wrap;html=1;fillColor=#d5e8d4;strokeColor=#82b366;" vertex="1" parent="1">
          <mxGeometry x="820" y="240" width="80" height="20" as="geometry" />
        </mxCell>
        <mxCell id="YQWvjCsICB9NxYi1fDgW-287" value="GSLOT 8" style="rounded=0;whiteSpace=wrap;html=1;fillColor=#f8cecc;strokeColor=#b85450;" vertex="1" parent="1">
          <mxGeometry x="820" y="260" width="80" height="20" as="geometry" />
        </mxCell>
        <mxCell id="YQWvjCsICB9NxYi1fDgW-288" value="GSLOT 6" style="rounded=0;whiteSpace=wrap;html=1;fillColor=#dae8fc;strokeColor=#6c8ebf;" vertex="1" parent="1">
          <mxGeometry x="820" y="220" width="80" height="20" as="geometry" />
        </mxCell>
        <mxCell id="YQWvjCsICB9NxYi1fDgW-289" value="GSLOT 3" style="rounded=0;whiteSpace=wrap;html=1;fillColor=#0050ef;strokeColor=#001DBC;fontColor=#ffffff;" vertex="1" parent="1">
          <mxGeometry x="820" y="280" width="80" height="20" as="geometry" />
        </mxCell>
        <mxCell id="YQWvjCsICB9NxYi1fDgW-290" value="GSLOT 3" style="rounded=0;whiteSpace=wrap;html=1;fillColor=#d5e8d4;strokeColor=#82b366;" vertex="1" parent="1">
          <mxGeometry x="820" y="320" width="80" height="20" as="geometry" />
        </mxCell>
        <mxCell id="YQWvjCsICB9NxYi1fDgW-291" value="GSLOT 4" style="rounded=0;whiteSpace=wrap;html=1;fillColor=#f8cecc;strokeColor=#b85450;" vertex="1" parent="1">
          <mxGeometry x="820" y="340" width="80" height="20" as="geometry" />
        </mxCell>
        <mxCell id="YQWvjCsICB9NxYi1fDgW-292" value="GSLOT 2" style="rounded=0;whiteSpace=wrap;html=1;fillColor=#647687;strokeColor=#314354;fontColor=#ffffff;" vertex="1" parent="1">
          <mxGeometry x="820" y="300" width="80" height="20" as="geometry" />
        </mxCell>
        <mxCell id="YQWvjCsICB9NxYi1fDgW-293" value="GSLOT 5" style="rounded=0;whiteSpace=wrap;html=1;fillColor=#ffe6cc;strokeColor=#d79b00;" vertex="1" parent="1">
          <mxGeometry x="820" y="360" width="80" height="20" as="geometry" />
        </mxCell>
        <mxCell id="YQWvjCsICB9NxYi1fDgW-294" value="GSLOT 7" style="rounded=0;whiteSpace=wrap;html=1;fillColor=#d5e8d4;strokeColor=#82b366;" vertex="1" parent="1">
          <mxGeometry x="820" y="400" width="80" height="20" as="geometry" />
        </mxCell>
        <mxCell id="YQWvjCsICB9NxYi1fDgW-295" value="GSLOT 8" style="rounded=0;whiteSpace=wrap;html=1;fillColor=#f8cecc;strokeColor=#b85450;" vertex="1" parent="1">
          <mxGeometry x="820" y="420" width="80" height="20" as="geometry" />
        </mxCell>
        <mxCell id="YQWvjCsICB9NxYi1fDgW-296" value="GSLOT 6" style="rounded=0;whiteSpace=wrap;html=1;fillColor=#dae8fc;strokeColor=#6c8ebf;" vertex="1" parent="1">
          <mxGeometry x="820" y="380" width="80" height="20" as="geometry" />
        </mxCell>
        <mxCell id="YQWvjCsICB9NxYi1fDgW-297" value="GSLOT 4" style="rounded=0;whiteSpace=wrap;html=1;fillColor=#0050ef;strokeColor=#001DBC;fontColor=#ffffff;" vertex="1" parent="1">
          <mxGeometry x="820" y="440" width="80" height="20" as="geometry" />
        </mxCell>
        <mxCell id="YQWvjCsICB9NxYi1fDgW-298" value="GSLOT 3" style="rounded=0;whiteSpace=wrap;html=1;fillColor=#d5e8d4;strokeColor=#82b366;" vertex="1" parent="1">
          <mxGeometry x="820" y="480" width="80" height="20" as="geometry" />
        </mxCell>
        <mxCell id="YQWvjCsICB9NxYi1fDgW-299" value="GSLOT 4" style="rounded=0;whiteSpace=wrap;html=1;fillColor=#f8cecc;strokeColor=#b85450;" vertex="1" parent="1">
          <mxGeometry x="820" y="500" width="80" height="20" as="geometry" />
        </mxCell>
        <mxCell id="YQWvjCsICB9NxYi1fDgW-300" value="GSLOT 2" style="rounded=0;whiteSpace=wrap;html=1;fillColor=#647687;strokeColor=#314354;fontColor=#ffffff;" vertex="1" parent="1">
          <mxGeometry x="820" y="460" width="80" height="20" as="geometry" />
        </mxCell>
        <mxCell id="YQWvjCsICB9NxYi1fDgW-301" value="GSLOT 5" style="rounded=0;whiteSpace=wrap;html=1;fillColor=#ffe6cc;strokeColor=#d79b00;" vertex="1" parent="1">
          <mxGeometry x="820" y="520" width="80" height="20" as="geometry" />
        </mxCell>
        <mxCell id="YQWvjCsICB9NxYi1fDgW-302" value="GSLOT 7" style="rounded=0;whiteSpace=wrap;html=1;fillColor=#d5e8d4;strokeColor=#82b366;" vertex="1" parent="1">
          <mxGeometry x="820" y="560" width="80" height="20" as="geometry" />
        </mxCell>
        <mxCell id="YQWvjCsICB9NxYi1fDgW-303" value="GSLOT 8" style="rounded=0;whiteSpace=wrap;html=1;fillColor=#f8cecc;strokeColor=#b85450;" vertex="1" parent="1">
          <mxGeometry x="820" y="580" width="80" height="20" as="geometry" />
        </mxCell>
        <mxCell id="YQWvjCsICB9NxYi1fDgW-304" value="GSLOT 6" style="rounded=0;whiteSpace=wrap;html=1;fillColor=#dae8fc;strokeColor=#6c8ebf;" vertex="1" parent="1">
          <mxGeometry x="820" y="540" width="80" height="20" as="geometry" />
        </mxCell>
        <mxCell id="YQWvjCsICB9NxYi1fDgW-305" value="GSLOT 5" style="rounded=0;whiteSpace=wrap;html=1;fillColor=#0050ef;strokeColor=#001DBC;fontColor=#ffffff;" vertex="1" parent="1">
          <mxGeometry x="820" y="600" width="80" height="20" as="geometry" />
        </mxCell>
        <mxCell id="YQWvjCsICB9NxYi1fDgW-306" value="GSLOT 3" style="rounded=0;whiteSpace=wrap;html=1;fillColor=#d5e8d4;strokeColor=#82b366;" vertex="1" parent="1">
          <mxGeometry x="820" y="640" width="80" height="20" as="geometry" />
        </mxCell>
        <mxCell id="YQWvjCsICB9NxYi1fDgW-307" value="GSLOT 4" style="rounded=0;whiteSpace=wrap;html=1;fillColor=#f8cecc;strokeColor=#b85450;" vertex="1" parent="1">
          <mxGeometry x="820" y="660" width="80" height="20" as="geometry" />
        </mxCell>
        <mxCell id="YQWvjCsICB9NxYi1fDgW-308" value="GSLOT 2" style="rounded=0;whiteSpace=wrap;html=1;fillColor=#647687;strokeColor=#314354;fontColor=#ffffff;" vertex="1" parent="1">
          <mxGeometry x="820" y="620" width="80" height="20" as="geometry" />
        </mxCell>
        <mxCell id="YQWvjCsICB9NxYi1fDgW-309" value="GSLOT 5" style="rounded=0;whiteSpace=wrap;html=1;fillColor=#ffe6cc;strokeColor=#d79b00;" vertex="1" parent="1">
          <mxGeometry x="820" y="680" width="80" height="20" as="geometry" />
        </mxCell>
        <mxCell id="YQWvjCsICB9NxYi1fDgW-310" value="GSLOT 7" style="rounded=0;whiteSpace=wrap;html=1;fillColor=#d5e8d4;strokeColor=#82b366;" vertex="1" parent="1">
          <mxGeometry x="820" y="720" width="80" height="20" as="geometry" />
        </mxCell>
        <mxCell id="YQWvjCsICB9NxYi1fDgW-311" value="GSLOT 8" style="rounded=0;whiteSpace=wrap;html=1;fillColor=#f8cecc;strokeColor=#b85450;" vertex="1" parent="1">
          <mxGeometry x="820" y="740" width="80" height="20" as="geometry" />
        </mxCell>
        <mxCell id="YQWvjCsICB9NxYi1fDgW-312" value="GSLOT 6" style="rounded=0;whiteSpace=wrap;html=1;fillColor=#dae8fc;strokeColor=#6c8ebf;" vertex="1" parent="1">
          <mxGeometry x="820" y="700" width="80" height="20" as="geometry" />
        </mxCell>
        <mxCell id="YQWvjCsICB9NxYi1fDgW-313" value="GSLOT 6" style="rounded=0;whiteSpace=wrap;html=1;fillColor=#0050ef;strokeColor=#001DBC;fontColor=#ffffff;" vertex="1" parent="1">
          <mxGeometry x="910" y="120" width="80" height="20" as="geometry" />
        </mxCell>
        <mxCell id="YQWvjCsICB9NxYi1fDgW-314" value="GSLOT 3" style="rounded=0;whiteSpace=wrap;html=1;fillColor=#d5e8d4;strokeColor=#82b366;" vertex="1" parent="1">
          <mxGeometry x="910" y="160" width="80" height="20" as="geometry" />
        </mxCell>
        <mxCell id="YQWvjCsICB9NxYi1fDgW-315" value="GSLOT 4" style="rounded=0;whiteSpace=wrap;html=1;fillColor=#f8cecc;strokeColor=#b85450;" vertex="1" parent="1">
          <mxGeometry x="910" y="180" width="80" height="20" as="geometry" />
        </mxCell>
        <mxCell id="YQWvjCsICB9NxYi1fDgW-316" value="GSLOT 2" style="rounded=0;whiteSpace=wrap;html=1;fillColor=#647687;strokeColor=#314354;fontColor=#ffffff;" vertex="1" parent="1">
          <mxGeometry x="910" y="140" width="80" height="20" as="geometry" />
        </mxCell>
        <mxCell id="YQWvjCsICB9NxYi1fDgW-317" value="GSLOT 5" style="rounded=0;whiteSpace=wrap;html=1;fillColor=#ffe6cc;strokeColor=#d79b00;" vertex="1" parent="1">
          <mxGeometry x="910" y="200" width="80" height="20" as="geometry" />
        </mxCell>
        <mxCell id="YQWvjCsICB9NxYi1fDgW-318" value="GSLOT 7" style="rounded=0;whiteSpace=wrap;html=1;fillColor=#d5e8d4;strokeColor=#82b366;" vertex="1" parent="1">
          <mxGeometry x="910" y="240" width="80" height="20" as="geometry" />
        </mxCell>
        <mxCell id="YQWvjCsICB9NxYi1fDgW-319" value="GSLOT 8" style="rounded=0;whiteSpace=wrap;html=1;fillColor=#f8cecc;strokeColor=#b85450;" vertex="1" parent="1">
          <mxGeometry x="910" y="260" width="80" height="20" as="geometry" />
        </mxCell>
        <mxCell id="YQWvjCsICB9NxYi1fDgW-320" value="GSLOT 6" style="rounded=0;whiteSpace=wrap;html=1;fillColor=#dae8fc;strokeColor=#6c8ebf;" vertex="1" parent="1">
          <mxGeometry x="910" y="220" width="80" height="20" as="geometry" />
        </mxCell>
        <mxCell id="YQWvjCsICB9NxYi1fDgW-321" value="GSLOT 7" style="rounded=0;whiteSpace=wrap;html=1;fillColor=#0050ef;strokeColor=#001DBC;fontColor=#ffffff;" vertex="1" parent="1">
          <mxGeometry x="910" y="280" width="80" height="20" as="geometry" />
        </mxCell>
        <mxCell id="YQWvjCsICB9NxYi1fDgW-322" value="GSLOT 3" style="rounded=0;whiteSpace=wrap;html=1;fillColor=#d5e8d4;strokeColor=#82b366;" vertex="1" parent="1">
          <mxGeometry x="910" y="320" width="80" height="20" as="geometry" />
        </mxCell>
        <mxCell id="YQWvjCsICB9NxYi1fDgW-323" value="GSLOT 4" style="rounded=0;whiteSpace=wrap;html=1;fillColor=#f8cecc;strokeColor=#b85450;" vertex="1" parent="1">
          <mxGeometry x="910" y="340" width="80" height="20" as="geometry" />
        </mxCell>
        <mxCell id="YQWvjCsICB9NxYi1fDgW-324" value="GSLOT 2" style="rounded=0;whiteSpace=wrap;html=1;fillColor=#647687;strokeColor=#314354;fontColor=#ffffff;" vertex="1" parent="1">
          <mxGeometry x="910" y="300" width="80" height="20" as="geometry" />
        </mxCell>
        <mxCell id="YQWvjCsICB9NxYi1fDgW-325" value="GSLOT 5" style="rounded=0;whiteSpace=wrap;html=1;fillColor=#ffe6cc;strokeColor=#d79b00;" vertex="1" parent="1">
          <mxGeometry x="910" y="360" width="80" height="20" as="geometry" />
        </mxCell>
        <mxCell id="YQWvjCsICB9NxYi1fDgW-326" value="GSLOT 7" style="rounded=0;whiteSpace=wrap;html=1;fillColor=#d5e8d4;strokeColor=#82b366;" vertex="1" parent="1">
          <mxGeometry x="910" y="400" width="80" height="20" as="geometry" />
        </mxCell>
        <mxCell id="YQWvjCsICB9NxYi1fDgW-327" value="GSLOT 8" style="rounded=0;whiteSpace=wrap;html=1;fillColor=#f8cecc;strokeColor=#b85450;" vertex="1" parent="1">
          <mxGeometry x="910" y="420" width="80" height="20" as="geometry" />
        </mxCell>
        <mxCell id="YQWvjCsICB9NxYi1fDgW-328" value="GSLOT 6" style="rounded=0;whiteSpace=wrap;html=1;fillColor=#dae8fc;strokeColor=#6c8ebf;" vertex="1" parent="1">
          <mxGeometry x="910" y="380" width="80" height="20" as="geometry" />
        </mxCell>
        <mxCell id="YQWvjCsICB9NxYi1fDgW-329" value="GSLOT 8" style="rounded=0;whiteSpace=wrap;html=1;fillColor=#0050ef;strokeColor=#001DBC;fontColor=#ffffff;" vertex="1" parent="1">
          <mxGeometry x="910" y="440" width="80" height="20" as="geometry" />
        </mxCell>
        <mxCell id="YQWvjCsICB9NxYi1fDgW-330" value="GSLOT 3" style="rounded=0;whiteSpace=wrap;html=1;fillColor=#d5e8d4;strokeColor=#82b366;" vertex="1" parent="1">
          <mxGeometry x="910" y="480" width="80" height="20" as="geometry" />
        </mxCell>
        <mxCell id="YQWvjCsICB9NxYi1fDgW-331" value="GSLOT 4" style="rounded=0;whiteSpace=wrap;html=1;fillColor=#f8cecc;strokeColor=#b85450;" vertex="1" parent="1">
          <mxGeometry x="910" y="500" width="80" height="20" as="geometry" />
        </mxCell>
        <mxCell id="YQWvjCsICB9NxYi1fDgW-332" value="GSLOT 2" style="rounded=0;whiteSpace=wrap;html=1;fillColor=#647687;strokeColor=#314354;fontColor=#ffffff;" vertex="1" parent="1">
          <mxGeometry x="910" y="460" width="80" height="20" as="geometry" />
        </mxCell>
        <mxCell id="YQWvjCsICB9NxYi1fDgW-333" value="GSLOT 5" style="rounded=0;whiteSpace=wrap;html=1;fillColor=#ffe6cc;strokeColor=#d79b00;" vertex="1" parent="1">
          <mxGeometry x="910" y="520" width="80" height="20" as="geometry" />
        </mxCell>
        <mxCell id="YQWvjCsICB9NxYi1fDgW-334" value="GSLOT 7" style="rounded=0;whiteSpace=wrap;html=1;fillColor=#d5e8d4;strokeColor=#82b366;" vertex="1" parent="1">
          <mxGeometry x="910" y="560" width="80" height="20" as="geometry" />
        </mxCell>
        <mxCell id="YQWvjCsICB9NxYi1fDgW-335" value="GSLOT 8" style="rounded=0;whiteSpace=wrap;html=1;fillColor=#f8cecc;strokeColor=#b85450;" vertex="1" parent="1">
          <mxGeometry x="910" y="580" width="80" height="20" as="geometry" />
        </mxCell>
        <mxCell id="YQWvjCsICB9NxYi1fDgW-336" value="GSLOT 6" style="rounded=0;whiteSpace=wrap;html=1;fillColor=#dae8fc;strokeColor=#6c8ebf;" vertex="1" parent="1">
          <mxGeometry x="910" y="540" width="80" height="20" as="geometry" />
        </mxCell>
        <mxCell id="YQWvjCsICB9NxYi1fDgW-337" value="GSLOT 2" style="rounded=0;whiteSpace=wrap;html=1;fillColor=#0050ef;strokeColor=#001DBC;fontColor=#ffffff;" vertex="1" parent="1">
          <mxGeometry x="910" y="600" width="80" height="20" as="geometry" />
        </mxCell>
        <mxCell id="YQWvjCsICB9NxYi1fDgW-338" value="GSLOT 3" style="rounded=0;whiteSpace=wrap;html=1;fillColor=#d5e8d4;strokeColor=#82b366;" vertex="1" parent="1">
          <mxGeometry x="910" y="640" width="80" height="20" as="geometry" />
        </mxCell>
        <mxCell id="YQWvjCsICB9NxYi1fDgW-339" value="GSLOT 4" style="rounded=0;whiteSpace=wrap;html=1;fillColor=#f8cecc;strokeColor=#b85450;" vertex="1" parent="1">
          <mxGeometry x="910" y="660" width="80" height="20" as="geometry" />
        </mxCell>
        <mxCell id="YQWvjCsICB9NxYi1fDgW-340" value="GSLOT 2" style="rounded=0;whiteSpace=wrap;html=1;fillColor=#647687;strokeColor=#314354;fontColor=#ffffff;" vertex="1" parent="1">
          <mxGeometry x="910" y="620" width="80" height="20" as="geometry" />
        </mxCell>
        <mxCell id="YQWvjCsICB9NxYi1fDgW-341" value="GSLOT 5" style="rounded=0;whiteSpace=wrap;html=1;fillColor=#ffe6cc;strokeColor=#d79b00;" vertex="1" parent="1">
          <mxGeometry x="910" y="680" width="80" height="20" as="geometry" />
        </mxCell>
        <mxCell id="YQWvjCsICB9NxYi1fDgW-342" value="GSLOT 7" style="rounded=0;whiteSpace=wrap;html=1;fillColor=#d5e8d4;strokeColor=#82b366;" vertex="1" parent="1">
          <mxGeometry x="910" y="720" width="80" height="20" as="geometry" />
        </mxCell>
        <mxCell id="YQWvjCsICB9NxYi1fDgW-343" value="GSLOT 8" style="rounded=0;whiteSpace=wrap;html=1;fillColor=#f8cecc;strokeColor=#b85450;" vertex="1" parent="1">
          <mxGeometry x="910" y="740" width="80" height="20" as="geometry" />
        </mxCell>
        <mxCell id="YQWvjCsICB9NxYi1fDgW-344" value="GSLOT 6" style="rounded=0;whiteSpace=wrap;html=1;fillColor=#dae8fc;strokeColor=#6c8ebf;" vertex="1" parent="1">
          <mxGeometry x="910" y="700" width="80" height="20" as="geometry" />
        </mxCell>
        <mxCell id="YQWvjCsICB9NxYi1fDgW-345" value="0-127" style="text;html=1;align=center;verticalAlign=middle;resizable=0;points=[];autosize=1;strokeColor=none;fillColor=none;" vertex="1" parent="1">
          <mxGeometry x="835" y="90" width="50" height="30" as="geometry" />
        </mxCell>
        <mxCell id="YQWvjCsICB9NxYi1fDgW-346" value="128-255" style="text;html=1;align=center;verticalAlign=middle;resizable=0;points=[];autosize=1;strokeColor=none;fillColor=none;" vertex="1" parent="1">
          <mxGeometry x="910" y="90" width="70" height="30" as="geometry" />
        </mxCell>
        <mxCell id="YQWvjCsICB9NxYi1fDgW-348" value="GSLOT 2" style="rounded=0;whiteSpace=wrap;html=1;fillColor=#0050ef;strokeColor=#001DBC;fontColor=#ffffff;" vertex="1" parent="1">
          <mxGeometry x="1050" y="119" width="80" height="20" as="geometry" />
        </mxCell>
        <mxCell id="YQWvjCsICB9NxYi1fDgW-349" value="GSLOT 3" style="rounded=0;whiteSpace=wrap;html=1;fillColor=#d5e8d4;strokeColor=#82b366;" vertex="1" parent="1">
          <mxGeometry x="1050" y="159" width="80" height="20" as="geometry" />
        </mxCell>
        <mxCell id="YQWvjCsICB9NxYi1fDgW-350" value="GSLOT 4" style="rounded=0;whiteSpace=wrap;html=1;fillColor=#f8cecc;strokeColor=#b85450;" vertex="1" parent="1">
          <mxGeometry x="1050" y="179" width="80" height="20" as="geometry" />
        </mxCell>
        <mxCell id="YQWvjCsICB9NxYi1fDgW-351" value="GSLOT 3" style="rounded=0;whiteSpace=wrap;html=1;fillColor=#e51400;strokeColor=#B20000;fontColor=#ffffff;" vertex="1" parent="1">
          <mxGeometry x="1050" y="139" width="80" height="20" as="geometry" />
        </mxCell>
        <mxCell id="YQWvjCsICB9NxYi1fDgW-352" value="GSLOT 5" style="rounded=0;whiteSpace=wrap;html=1;fillColor=#ffe6cc;strokeColor=#d79b00;" vertex="1" parent="1">
          <mxGeometry x="1050" y="199" width="80" height="20" as="geometry" />
        </mxCell>
        <mxCell id="YQWvjCsICB9NxYi1fDgW-353" value="GSLOT 7" style="rounded=0;whiteSpace=wrap;html=1;fillColor=#d5e8d4;strokeColor=#82b366;" vertex="1" parent="1">
          <mxGeometry x="1050" y="239" width="80" height="20" as="geometry" />
        </mxCell>
        <mxCell id="YQWvjCsICB9NxYi1fDgW-354" value="GSLOT 8" style="rounded=0;whiteSpace=wrap;html=1;fillColor=#f8cecc;strokeColor=#b85450;" vertex="1" parent="1">
          <mxGeometry x="1050" y="259" width="80" height="20" as="geometry" />
        </mxCell>
        <mxCell id="YQWvjCsICB9NxYi1fDgW-355" value="GSLOT 6" style="rounded=0;whiteSpace=wrap;html=1;fillColor=#dae8fc;strokeColor=#6c8ebf;" vertex="1" parent="1">
          <mxGeometry x="1050" y="219" width="80" height="20" as="geometry" />
        </mxCell>
        <mxCell id="YQWvjCsICB9NxYi1fDgW-356" value="GSLOT 3" style="rounded=0;whiteSpace=wrap;html=1;fillColor=#0050ef;strokeColor=#001DBC;fontColor=#ffffff;" vertex="1" parent="1">
          <mxGeometry x="1050" y="279" width="80" height="20" as="geometry" />
        </mxCell>
        <mxCell id="YQWvjCsICB9NxYi1fDgW-357" value="GSLOT 3" style="rounded=0;whiteSpace=wrap;html=1;fillColor=#d5e8d4;strokeColor=#82b366;" vertex="1" parent="1">
          <mxGeometry x="1050" y="319" width="80" height="20" as="geometry" />
        </mxCell>
        <mxCell id="YQWvjCsICB9NxYi1fDgW-358" value="GSLOT 4" style="rounded=0;whiteSpace=wrap;html=1;fillColor=#f8cecc;strokeColor=#b85450;" vertex="1" parent="1">
          <mxGeometry x="1050" y="339" width="80" height="20" as="geometry" />
        </mxCell>
        <mxCell id="YQWvjCsICB9NxYi1fDgW-359" value="GSLOT 4" style="rounded=0;whiteSpace=wrap;html=1;fillColor=#e51400;strokeColor=#B20000;fontColor=#ffffff;" vertex="1" parent="1">
          <mxGeometry x="1050" y="299" width="80" height="20" as="geometry" />
        </mxCell>
        <mxCell id="YQWvjCsICB9NxYi1fDgW-360" value="GSLOT 5" style="rounded=0;whiteSpace=wrap;html=1;fillColor=#ffe6cc;strokeColor=#d79b00;" vertex="1" parent="1">
          <mxGeometry x="1050" y="359" width="80" height="20" as="geometry" />
        </mxCell>
        <mxCell id="YQWvjCsICB9NxYi1fDgW-361" value="GSLOT 7" style="rounded=0;whiteSpace=wrap;html=1;fillColor=#d5e8d4;strokeColor=#82b366;" vertex="1" parent="1">
          <mxGeometry x="1050" y="399" width="80" height="20" as="geometry" />
        </mxCell>
        <mxCell id="YQWvjCsICB9NxYi1fDgW-362" value="GSLOT 8" style="rounded=0;whiteSpace=wrap;html=1;fillColor=#f8cecc;strokeColor=#b85450;" vertex="1" parent="1">
          <mxGeometry x="1050" y="419" width="80" height="20" as="geometry" />
        </mxCell>
        <mxCell id="YQWvjCsICB9NxYi1fDgW-363" value="GSLOT 6" style="rounded=0;whiteSpace=wrap;html=1;fillColor=#dae8fc;strokeColor=#6c8ebf;" vertex="1" parent="1">
          <mxGeometry x="1050" y="379" width="80" height="20" as="geometry" />
        </mxCell>
        <mxCell id="YQWvjCsICB9NxYi1fDgW-364" value="GSLOT 4" style="rounded=0;whiteSpace=wrap;html=1;fillColor=#0050ef;strokeColor=#001DBC;fontColor=#ffffff;" vertex="1" parent="1">
          <mxGeometry x="1050" y="439" width="80" height="20" as="geometry" />
        </mxCell>
        <mxCell id="YQWvjCsICB9NxYi1fDgW-365" value="GSLOT 3" style="rounded=0;whiteSpace=wrap;html=1;fillColor=#d5e8d4;strokeColor=#82b366;" vertex="1" parent="1">
          <mxGeometry x="1050" y="479" width="80" height="20" as="geometry" />
        </mxCell>
        <mxCell id="YQWvjCsICB9NxYi1fDgW-366" value="GSLOT 4" style="rounded=0;whiteSpace=wrap;html=1;fillColor=#f8cecc;strokeColor=#b85450;" vertex="1" parent="1">
          <mxGeometry x="1050" y="499" width="80" height="20" as="geometry" />
        </mxCell>
        <mxCell id="YQWvjCsICB9NxYi1fDgW-367" value="GSLOT 5" style="rounded=0;whiteSpace=wrap;html=1;fillColor=#e51400;strokeColor=#B20000;fontColor=#ffffff;" vertex="1" parent="1">
          <mxGeometry x="1050" y="459" width="80" height="20" as="geometry" />
        </mxCell>
        <mxCell id="YQWvjCsICB9NxYi1fDgW-368" value="GSLOT 5" style="rounded=0;whiteSpace=wrap;html=1;fillColor=#ffe6cc;strokeColor=#d79b00;" vertex="1" parent="1">
          <mxGeometry x="1050" y="519" width="80" height="20" as="geometry" />
        </mxCell>
        <mxCell id="YQWvjCsICB9NxYi1fDgW-369" value="GSLOT 7" style="rounded=0;whiteSpace=wrap;html=1;fillColor=#d5e8d4;strokeColor=#82b366;" vertex="1" parent="1">
          <mxGeometry x="1050" y="559" width="80" height="20" as="geometry" />
        </mxCell>
        <mxCell id="YQWvjCsICB9NxYi1fDgW-370" value="GSLOT 8" style="rounded=0;whiteSpace=wrap;html=1;fillColor=#f8cecc;strokeColor=#b85450;" vertex="1" parent="1">
          <mxGeometry x="1050" y="579" width="80" height="20" as="geometry" />
        </mxCell>
        <mxCell id="YQWvjCsICB9NxYi1fDgW-371" value="GSLOT 6" style="rounded=0;whiteSpace=wrap;html=1;fillColor=#dae8fc;strokeColor=#6c8ebf;" vertex="1" parent="1">
          <mxGeometry x="1050" y="539" width="80" height="20" as="geometry" />
        </mxCell>
        <mxCell id="YQWvjCsICB9NxYi1fDgW-372" value="GSLOT 5" style="rounded=0;whiteSpace=wrap;html=1;fillColor=#0050ef;strokeColor=#001DBC;fontColor=#ffffff;" vertex="1" parent="1">
          <mxGeometry x="1050" y="599" width="80" height="20" as="geometry" />
        </mxCell>
        <mxCell id="YQWvjCsICB9NxYi1fDgW-373" value="GSLOT 3" style="rounded=0;whiteSpace=wrap;html=1;fillColor=#d5e8d4;strokeColor=#82b366;" vertex="1" parent="1">
          <mxGeometry x="1050" y="639" width="80" height="20" as="geometry" />
        </mxCell>
        <mxCell id="YQWvjCsICB9NxYi1fDgW-374" value="GSLOT 4" style="rounded=0;whiteSpace=wrap;html=1;fillColor=#f8cecc;strokeColor=#b85450;" vertex="1" parent="1">
          <mxGeometry x="1050" y="659" width="80" height="20" as="geometry" />
        </mxCell>
        <mxCell id="YQWvjCsICB9NxYi1fDgW-375" value="GSLOT 6" style="rounded=0;whiteSpace=wrap;html=1;fillColor=#e51400;strokeColor=#B20000;fontColor=#ffffff;" vertex="1" parent="1">
          <mxGeometry x="1050" y="619" width="80" height="20" as="geometry" />
        </mxCell>
        <mxCell id="YQWvjCsICB9NxYi1fDgW-376" value="GSLOT 5" style="rounded=0;whiteSpace=wrap;html=1;fillColor=#ffe6cc;strokeColor=#d79b00;" vertex="1" parent="1">
          <mxGeometry x="1050" y="679" width="80" height="20" as="geometry" />
        </mxCell>
        <mxCell id="YQWvjCsICB9NxYi1fDgW-377" value="GSLOT 7" style="rounded=0;whiteSpace=wrap;html=1;fillColor=#d5e8d4;strokeColor=#82b366;" vertex="1" parent="1">
          <mxGeometry x="1050" y="719" width="80" height="20" as="geometry" />
        </mxCell>
        <mxCell id="YQWvjCsICB9NxYi1fDgW-378" value="GSLOT 8" style="rounded=0;whiteSpace=wrap;html=1;fillColor=#f8cecc;strokeColor=#b85450;" vertex="1" parent="1">
          <mxGeometry x="1050" y="739" width="80" height="20" as="geometry" />
        </mxCell>
        <mxCell id="YQWvjCsICB9NxYi1fDgW-379" value="GSLOT 6" style="rounded=0;whiteSpace=wrap;html=1;fillColor=#dae8fc;strokeColor=#6c8ebf;" vertex="1" parent="1">
          <mxGeometry x="1050" y="699" width="80" height="20" as="geometry" />
        </mxCell>
        <mxCell id="YQWvjCsICB9NxYi1fDgW-380" value="GSLOT 6" style="rounded=0;whiteSpace=wrap;html=1;fillColor=#0050ef;strokeColor=#001DBC;fontColor=#ffffff;" vertex="1" parent="1">
          <mxGeometry x="1140" y="119" width="80" height="20" as="geometry" />
        </mxCell>
        <mxCell id="YQWvjCsICB9NxYi1fDgW-381" value="GSLOT 3" style="rounded=0;whiteSpace=wrap;html=1;fillColor=#d5e8d4;strokeColor=#82b366;" vertex="1" parent="1">
          <mxGeometry x="1140" y="159" width="80" height="20" as="geometry" />
        </mxCell>
        <mxCell id="YQWvjCsICB9NxYi1fDgW-382" value="GSLOT 4" style="rounded=0;whiteSpace=wrap;html=1;fillColor=#f8cecc;strokeColor=#b85450;" vertex="1" parent="1">
          <mxGeometry x="1140" y="179" width="80" height="20" as="geometry" />
        </mxCell>
        <mxCell id="YQWvjCsICB9NxYi1fDgW-383" value="GSLOT 7" style="rounded=0;whiteSpace=wrap;html=1;fillColor=#e51400;strokeColor=#B20000;fontColor=#ffffff;" vertex="1" parent="1">
          <mxGeometry x="1140" y="139" width="80" height="20" as="geometry" />
        </mxCell>
        <mxCell id="YQWvjCsICB9NxYi1fDgW-384" value="GSLOT 5" style="rounded=0;whiteSpace=wrap;html=1;fillColor=#ffe6cc;strokeColor=#d79b00;" vertex="1" parent="1">
          <mxGeometry x="1140" y="199" width="80" height="20" as="geometry" />
        </mxCell>
        <mxCell id="YQWvjCsICB9NxYi1fDgW-385" value="GSLOT 7" style="rounded=0;whiteSpace=wrap;html=1;fillColor=#d5e8d4;strokeColor=#82b366;" vertex="1" parent="1">
          <mxGeometry x="1140" y="239" width="80" height="20" as="geometry" />
        </mxCell>
        <mxCell id="YQWvjCsICB9NxYi1fDgW-386" value="GSLOT 8" style="rounded=0;whiteSpace=wrap;html=1;fillColor=#f8cecc;strokeColor=#b85450;" vertex="1" parent="1">
          <mxGeometry x="1140" y="259" width="80" height="20" as="geometry" />
        </mxCell>
        <mxCell id="YQWvjCsICB9NxYi1fDgW-387" value="GSLOT 6" style="rounded=0;whiteSpace=wrap;html=1;fillColor=#dae8fc;strokeColor=#6c8ebf;" vertex="1" parent="1">
          <mxGeometry x="1140" y="219" width="80" height="20" as="geometry" />
        </mxCell>
        <mxCell id="YQWvjCsICB9NxYi1fDgW-388" value="GSLOT 7" style="rounded=0;whiteSpace=wrap;html=1;fillColor=#0050ef;strokeColor=#001DBC;fontColor=#ffffff;" vertex="1" parent="1">
          <mxGeometry x="1140" y="279" width="80" height="20" as="geometry" />
        </mxCell>
        <mxCell id="YQWvjCsICB9NxYi1fDgW-389" value="GSLOT 3" style="rounded=0;whiteSpace=wrap;html=1;fillColor=#d5e8d4;strokeColor=#82b366;" vertex="1" parent="1">
          <mxGeometry x="1140" y="319" width="80" height="20" as="geometry" />
        </mxCell>
        <mxCell id="YQWvjCsICB9NxYi1fDgW-390" value="GSLOT 4" style="rounded=0;whiteSpace=wrap;html=1;fillColor=#f8cecc;strokeColor=#b85450;" vertex="1" parent="1">
          <mxGeometry x="1140" y="339" width="80" height="20" as="geometry" />
        </mxCell>
        <mxCell id="YQWvjCsICB9NxYi1fDgW-391" value="GSLOT 8" style="rounded=0;whiteSpace=wrap;html=1;fillColor=#e51400;strokeColor=#B20000;fontColor=#ffffff;" vertex="1" parent="1">
          <mxGeometry x="1140" y="299" width="80" height="20" as="geometry" />
        </mxCell>
        <mxCell id="YQWvjCsICB9NxYi1fDgW-392" value="GSLOT 5" style="rounded=0;whiteSpace=wrap;html=1;fillColor=#ffe6cc;strokeColor=#d79b00;" vertex="1" parent="1">
          <mxGeometry x="1140" y="359" width="80" height="20" as="geometry" />
        </mxCell>
        <mxCell id="YQWvjCsICB9NxYi1fDgW-393" value="GSLOT 7" style="rounded=0;whiteSpace=wrap;html=1;fillColor=#d5e8d4;strokeColor=#82b366;" vertex="1" parent="1">
          <mxGeometry x="1140" y="399" width="80" height="20" as="geometry" />
        </mxCell>
        <mxCell id="YQWvjCsICB9NxYi1fDgW-394" value="GSLOT 8" style="rounded=0;whiteSpace=wrap;html=1;fillColor=#f8cecc;strokeColor=#b85450;" vertex="1" parent="1">
          <mxGeometry x="1140" y="419" width="80" height="20" as="geometry" />
        </mxCell>
        <mxCell id="YQWvjCsICB9NxYi1fDgW-395" value="GSLOT 6" style="rounded=0;whiteSpace=wrap;html=1;fillColor=#dae8fc;strokeColor=#6c8ebf;" vertex="1" parent="1">
          <mxGeometry x="1140" y="379" width="80" height="20" as="geometry" />
        </mxCell>
        <mxCell id="YQWvjCsICB9NxYi1fDgW-396" value="GSLOT 8" style="rounded=0;whiteSpace=wrap;html=1;fillColor=#0050ef;strokeColor=#001DBC;fontColor=#ffffff;" vertex="1" parent="1">
          <mxGeometry x="1140" y="439" width="80" height="20" as="geometry" />
        </mxCell>
        <mxCell id="YQWvjCsICB9NxYi1fDgW-397" value="GSLOT 3" style="rounded=0;whiteSpace=wrap;html=1;fillColor=#d5e8d4;strokeColor=#82b366;" vertex="1" parent="1">
          <mxGeometry x="1140" y="479" width="80" height="20" as="geometry" />
        </mxCell>
        <mxCell id="YQWvjCsICB9NxYi1fDgW-398" value="GSLOT 4" style="rounded=0;whiteSpace=wrap;html=1;fillColor=#f8cecc;strokeColor=#b85450;" vertex="1" parent="1">
          <mxGeometry x="1140" y="499" width="80" height="20" as="geometry" />
        </mxCell>
        <mxCell id="YQWvjCsICB9NxYi1fDgW-399" value="GSLOT 3" style="rounded=0;whiteSpace=wrap;html=1;fillColor=#e51400;strokeColor=#B20000;fontColor=#ffffff;" vertex="1" parent="1">
          <mxGeometry x="1140" y="459" width="80" height="20" as="geometry" />
        </mxCell>
        <mxCell id="YQWvjCsICB9NxYi1fDgW-400" value="GSLOT 5" style="rounded=0;whiteSpace=wrap;html=1;fillColor=#ffe6cc;strokeColor=#d79b00;" vertex="1" parent="1">
          <mxGeometry x="1140" y="519" width="80" height="20" as="geometry" />
        </mxCell>
        <mxCell id="YQWvjCsICB9NxYi1fDgW-401" value="GSLOT 7" style="rounded=0;whiteSpace=wrap;html=1;fillColor=#d5e8d4;strokeColor=#82b366;" vertex="1" parent="1">
          <mxGeometry x="1140" y="559" width="80" height="20" as="geometry" />
        </mxCell>
        <mxCell id="YQWvjCsICB9NxYi1fDgW-402" value="GSLOT 8" style="rounded=0;whiteSpace=wrap;html=1;fillColor=#f8cecc;strokeColor=#b85450;" vertex="1" parent="1">
          <mxGeometry x="1140" y="579" width="80" height="20" as="geometry" />
        </mxCell>
        <mxCell id="YQWvjCsICB9NxYi1fDgW-403" value="GSLOT 6" style="rounded=0;whiteSpace=wrap;html=1;fillColor=#dae8fc;strokeColor=#6c8ebf;" vertex="1" parent="1">
          <mxGeometry x="1140" y="539" width="80" height="20" as="geometry" />
        </mxCell>
        <mxCell id="YQWvjCsICB9NxYi1fDgW-404" value="GSLOT 2" style="rounded=0;whiteSpace=wrap;html=1;fillColor=#0050ef;strokeColor=#001DBC;fontColor=#ffffff;" vertex="1" parent="1">
          <mxGeometry x="1140" y="599" width="80" height="20" as="geometry" />
        </mxCell>
        <mxCell id="YQWvjCsICB9NxYi1fDgW-405" value="GSLOT 3" style="rounded=0;whiteSpace=wrap;html=1;fillColor=#d5e8d4;strokeColor=#82b366;" vertex="1" parent="1">
          <mxGeometry x="1140" y="639" width="80" height="20" as="geometry" />
        </mxCell>
        <mxCell id="YQWvjCsICB9NxYi1fDgW-406" value="GSLOT 4" style="rounded=0;whiteSpace=wrap;html=1;fillColor=#f8cecc;strokeColor=#b85450;" vertex="1" parent="1">
          <mxGeometry x="1140" y="659" width="80" height="20" as="geometry" />
        </mxCell>
        <mxCell id="YQWvjCsICB9NxYi1fDgW-407" value="GSLOT 4" style="rounded=0;whiteSpace=wrap;html=1;fillColor=#e51400;strokeColor=#B20000;fontColor=#ffffff;" vertex="1" parent="1">
          <mxGeometry x="1140" y="619" width="80" height="20" as="geometry" />
        </mxCell>
        <mxCell id="YQWvjCsICB9NxYi1fDgW-408" value="GSLOT 5" style="rounded=0;whiteSpace=wrap;html=1;fillColor=#ffe6cc;strokeColor=#d79b00;" vertex="1" parent="1">
          <mxGeometry x="1140" y="679" width="80" height="20" as="geometry" />
        </mxCell>
        <mxCell id="YQWvjCsICB9NxYi1fDgW-409" value="GSLOT 7" style="rounded=0;whiteSpace=wrap;html=1;fillColor=#d5e8d4;strokeColor=#82b366;" vertex="1" parent="1">
          <mxGeometry x="1140" y="719" width="80" height="20" as="geometry" />
        </mxCell>
        <mxCell id="YQWvjCsICB9NxYi1fDgW-410" value="GSLOT 8" style="rounded=0;whiteSpace=wrap;html=1;fillColor=#f8cecc;strokeColor=#b85450;" vertex="1" parent="1">
          <mxGeometry x="1140" y="739" width="80" height="20" as="geometry" />
        </mxCell>
        <mxCell id="YQWvjCsICB9NxYi1fDgW-411" value="GSLOT 6" style="rounded=0;whiteSpace=wrap;html=1;fillColor=#dae8fc;strokeColor=#6c8ebf;" vertex="1" parent="1">
          <mxGeometry x="1140" y="699" width="80" height="20" as="geometry" />
        </mxCell>
        <mxCell id="YQWvjCsICB9NxYi1fDgW-412" value="0-127" style="text;html=1;align=center;verticalAlign=middle;resizable=0;points=[];autosize=1;strokeColor=none;fillColor=none;" vertex="1" parent="1">
          <mxGeometry x="1065" y="89" width="50" height="30" as="geometry" />
        </mxCell>
        <mxCell id="YQWvjCsICB9NxYi1fDgW-413" value="128-255" style="text;html=1;align=center;verticalAlign=middle;resizable=0;points=[];autosize=1;strokeColor=none;fillColor=none;" vertex="1" parent="1">
          <mxGeometry x="1140" y="89" width="70" height="30" as="geometry" />
        </mxCell>
        <mxCell id="YQWvjCsICB9NxYi1fDgW-415" value="" style="endArrow=classic;html=1;rounded=0;strokeWidth=1;" edge="1" parent="1">
          <mxGeometry width="50" height="50" relative="1" as="geometry">
            <mxPoint x="776" y="129.5" as="sourcePoint" />
            <mxPoint x="816" y="129.5" as="targetPoint" />
          </mxGeometry>
        </mxCell>
        <mxCell id="YQWvjCsICB9NxYi1fDgW-417" value="" style="endArrow=classic;html=1;rounded=0;strokeWidth=1;" edge="1" parent="1">
          <mxGeometry width="50" height="50" relative="1" as="geometry">
            <mxPoint x="776" y="290.5" as="sourcePoint" />
            <mxPoint x="816" y="290.5" as="targetPoint" />
          </mxGeometry>
        </mxCell>
        <mxCell id="YQWvjCsICB9NxYi1fDgW-418" value="" style="endArrow=classic;html=1;rounded=0;strokeWidth=1;" edge="1" parent="1">
          <mxGeometry width="50" height="50" relative="1" as="geometry">
            <mxPoint x="776" y="449.5" as="sourcePoint" />
            <mxPoint x="816" y="449.5" as="targetPoint" />
          </mxGeometry>
        </mxCell>
        <mxCell id="YQWvjCsICB9NxYi1fDgW-419" value="" style="endArrow=classic;html=1;rounded=0;strokeWidth=1;" edge="1" parent="1">
          <mxGeometry width="50" height="50" relative="1" as="geometry">
            <mxPoint x="776" y="610.5" as="sourcePoint" />
            <mxPoint x="816" y="610.5" as="targetPoint" />
          </mxGeometry>
        </mxCell>
        <mxCell id="YQWvjCsICB9NxYi1fDgW-429" value="" style="endArrow=classic;html=1;rounded=0;strokeWidth=1;" edge="1" parent="1">
          <mxGeometry width="50" height="50" relative="1" as="geometry">
            <mxPoint x="999" y="149.5" as="sourcePoint" />
            <mxPoint x="1039" y="149.5" as="targetPoint" />
          </mxGeometry>
        </mxCell>
        <mxCell id="YQWvjCsICB9NxYi1fDgW-430" value="" style="endArrow=classic;html=1;rounded=0;strokeWidth=1;" edge="1" parent="1">
          <mxGeometry width="50" height="50" relative="1" as="geometry">
            <mxPoint x="999" y="310.5" as="sourcePoint" />
            <mxPoint x="1039" y="310.5" as="targetPoint" />
          </mxGeometry>
        </mxCell>
        <mxCell id="YQWvjCsICB9NxYi1fDgW-431" value="" style="endArrow=classic;html=1;rounded=0;strokeWidth=1;" edge="1" parent="1">
          <mxGeometry width="50" height="50" relative="1" as="geometry">
            <mxPoint x="999" y="469.5" as="sourcePoint" />
            <mxPoint x="1039" y="469.5" as="targetPoint" />
          </mxGeometry>
        </mxCell>
        <mxCell id="YQWvjCsICB9NxYi1fDgW-432" value="" style="endArrow=classic;html=1;rounded=0;strokeWidth=1;" edge="1" parent="1">
          <mxGeometry width="50" height="50" relative="1" as="geometry">
            <mxPoint x="999" y="630.5" as="sourcePoint" />
            <mxPoint x="1039" y="630.5" as="targetPoint" />
          </mxGeometry>
        </mxCell>
        <mxCell id="YQWvjCsICB9NxYi1fDgW-433" value="GSLOT 5" style="rounded=0;whiteSpace=wrap;html=1;fillColor=#f0a30a;strokeColor=#BD7000;fontColor=#000000;" vertex="1" parent="1">
          <mxGeometry x="1270" y="120" width="80" height="20" as="geometry" />
        </mxCell>
        <mxCell id="YQWvjCsICB9NxYi1fDgW-434" value="GSLOT 3" style="rounded=0;whiteSpace=wrap;html=1;fillColor=#d5e8d4;strokeColor=#82b366;" vertex="1" parent="1">
          <mxGeometry x="1270" y="160" width="80" height="20" as="geometry" />
        </mxCell>
        <mxCell id="YQWvjCsICB9NxYi1fDgW-435" value="GSLOT 4" style="rounded=0;whiteSpace=wrap;html=1;fillColor=#f8cecc;strokeColor=#b85450;" vertex="1" parent="1">
          <mxGeometry x="1270" y="180" width="80" height="20" as="geometry" />
        </mxCell>
        <mxCell id="YQWvjCsICB9NxYi1fDgW-436" value="GSLOT 3" style="rounded=0;whiteSpace=wrap;html=1;fillColor=#e51400;strokeColor=#B20000;fontColor=#ffffff;" vertex="1" parent="1">
          <mxGeometry x="1270" y="140" width="80" height="20" as="geometry" />
        </mxCell>
        <mxCell id="YQWvjCsICB9NxYi1fDgW-437" value="GSLOT 5" style="rounded=0;whiteSpace=wrap;html=1;fillColor=#ffe6cc;strokeColor=#d79b00;" vertex="1" parent="1">
          <mxGeometry x="1270" y="200" width="80" height="20" as="geometry" />
        </mxCell>
        <mxCell id="YQWvjCsICB9NxYi1fDgW-438" value="GSLOT 7" style="rounded=0;whiteSpace=wrap;html=1;fillColor=#d5e8d4;strokeColor=#82b366;" vertex="1" parent="1">
          <mxGeometry x="1270" y="240" width="80" height="20" as="geometry" />
        </mxCell>
        <mxCell id="YQWvjCsICB9NxYi1fDgW-439" value="GSLOT 8" style="rounded=0;whiteSpace=wrap;html=1;fillColor=#f8cecc;strokeColor=#b85450;" vertex="1" parent="1">
          <mxGeometry x="1270" y="260" width="80" height="20" as="geometry" />
        </mxCell>
        <mxCell id="YQWvjCsICB9NxYi1fDgW-440" value="GSLOT 6" style="rounded=0;whiteSpace=wrap;html=1;fillColor=#dae8fc;strokeColor=#6c8ebf;" vertex="1" parent="1">
          <mxGeometry x="1270" y="220" width="80" height="20" as="geometry" />
        </mxCell>
        <mxCell id="YQWvjCsICB9NxYi1fDgW-441" value="GSLOT 3" style="rounded=0;whiteSpace=wrap;html=1;fillColor=#0050ef;strokeColor=#001DBC;fontColor=#ffffff;" vertex="1" parent="1">
          <mxGeometry x="1270" y="280" width="80" height="20" as="geometry" />
        </mxCell>
        <mxCell id="YQWvjCsICB9NxYi1fDgW-442" value="GSLOT 3" style="rounded=0;whiteSpace=wrap;html=1;fillColor=#d5e8d4;strokeColor=#82b366;" vertex="1" parent="1">
          <mxGeometry x="1270" y="320" width="80" height="20" as="geometry" />
        </mxCell>
        <mxCell id="YQWvjCsICB9NxYi1fDgW-443" value="GSLOT 4" style="rounded=0;whiteSpace=wrap;html=1;fillColor=#f8cecc;strokeColor=#b85450;" vertex="1" parent="1">
          <mxGeometry x="1270" y="340" width="80" height="20" as="geometry" />
        </mxCell>
        <mxCell id="YQWvjCsICB9NxYi1fDgW-444" value="GSLOT 4" style="rounded=0;whiteSpace=wrap;html=1;fillColor=#e51400;strokeColor=#B20000;fontColor=#ffffff;" vertex="1" parent="1">
          <mxGeometry x="1270" y="300" width="80" height="20" as="geometry" />
        </mxCell>
        <mxCell id="YQWvjCsICB9NxYi1fDgW-445" value="GSLOT 5" style="rounded=0;whiteSpace=wrap;html=1;fillColor=#ffe6cc;strokeColor=#d79b00;" vertex="1" parent="1">
          <mxGeometry x="1270" y="360" width="80" height="20" as="geometry" />
        </mxCell>
        <mxCell id="YQWvjCsICB9NxYi1fDgW-446" value="GSLOT 7" style="rounded=0;whiteSpace=wrap;html=1;fillColor=#d5e8d4;strokeColor=#82b366;" vertex="1" parent="1">
          <mxGeometry x="1270" y="400" width="80" height="20" as="geometry" />
        </mxCell>
        <mxCell id="YQWvjCsICB9NxYi1fDgW-447" value="GSLOT 8" style="rounded=0;whiteSpace=wrap;html=1;fillColor=#f8cecc;strokeColor=#b85450;" vertex="1" parent="1">
          <mxGeometry x="1270" y="420" width="80" height="20" as="geometry" />
        </mxCell>
        <mxCell id="YQWvjCsICB9NxYi1fDgW-448" value="GSLOT 6" style="rounded=0;whiteSpace=wrap;html=1;fillColor=#dae8fc;strokeColor=#6c8ebf;" vertex="1" parent="1">
          <mxGeometry x="1270" y="380" width="80" height="20" as="geometry" />
        </mxCell>
        <mxCell id="YQWvjCsICB9NxYi1fDgW-449" value="GSLOT 4" style="rounded=0;whiteSpace=wrap;html=1;fillColor=#0050ef;strokeColor=#001DBC;fontColor=#ffffff;" vertex="1" parent="1">
          <mxGeometry x="1270" y="440" width="80" height="20" as="geometry" />
        </mxCell>
        <mxCell id="YQWvjCsICB9NxYi1fDgW-450" value="GSLOT 3" style="rounded=0;whiteSpace=wrap;html=1;fillColor=#d5e8d4;strokeColor=#82b366;" vertex="1" parent="1">
          <mxGeometry x="1270" y="480" width="80" height="20" as="geometry" />
        </mxCell>
        <mxCell id="YQWvjCsICB9NxYi1fDgW-451" value="GSLOT 4" style="rounded=0;whiteSpace=wrap;html=1;fillColor=#f8cecc;strokeColor=#b85450;" vertex="1" parent="1">
          <mxGeometry x="1270" y="500" width="80" height="20" as="geometry" />
        </mxCell>
        <mxCell id="YQWvjCsICB9NxYi1fDgW-452" value="GSLOT 5" style="rounded=0;whiteSpace=wrap;html=1;fillColor=#e51400;strokeColor=#B20000;fontColor=#ffffff;" vertex="1" parent="1">
          <mxGeometry x="1270" y="460" width="80" height="20" as="geometry" />
        </mxCell>
        <mxCell id="YQWvjCsICB9NxYi1fDgW-453" value="GSLOT 5" style="rounded=0;whiteSpace=wrap;html=1;fillColor=#ffe6cc;strokeColor=#d79b00;" vertex="1" parent="1">
          <mxGeometry x="1270" y="520" width="80" height="20" as="geometry" />
        </mxCell>
        <mxCell id="YQWvjCsICB9NxYi1fDgW-454" value="GSLOT 7" style="rounded=0;whiteSpace=wrap;html=1;fillColor=#d5e8d4;strokeColor=#82b366;" vertex="1" parent="1">
          <mxGeometry x="1270" y="560" width="80" height="20" as="geometry" />
        </mxCell>
        <mxCell id="YQWvjCsICB9NxYi1fDgW-455" value="GSLOT 8" style="rounded=0;whiteSpace=wrap;html=1;fillColor=#f8cecc;strokeColor=#b85450;" vertex="1" parent="1">
          <mxGeometry x="1270" y="580" width="80" height="20" as="geometry" />
        </mxCell>
        <mxCell id="YQWvjCsICB9NxYi1fDgW-456" value="GSLOT 6" style="rounded=0;whiteSpace=wrap;html=1;fillColor=#dae8fc;strokeColor=#6c8ebf;" vertex="1" parent="1">
          <mxGeometry x="1270" y="540" width="80" height="20" as="geometry" />
        </mxCell>
        <mxCell id="YQWvjCsICB9NxYi1fDgW-457" value="GSLOT 5" style="rounded=0;whiteSpace=wrap;html=1;fillColor=#0050ef;strokeColor=#001DBC;fontColor=#ffffff;" vertex="1" parent="1">
          <mxGeometry x="1270" y="600" width="80" height="20" as="geometry" />
        </mxCell>
        <mxCell id="YQWvjCsICB9NxYi1fDgW-458" value="GSLOT 3" style="rounded=0;whiteSpace=wrap;html=1;fillColor=#d5e8d4;strokeColor=#82b366;" vertex="1" parent="1">
          <mxGeometry x="1270" y="640" width="80" height="20" as="geometry" />
        </mxCell>
        <mxCell id="YQWvjCsICB9NxYi1fDgW-459" value="GSLOT 4" style="rounded=0;whiteSpace=wrap;html=1;fillColor=#f8cecc;strokeColor=#b85450;" vertex="1" parent="1">
          <mxGeometry x="1270" y="660" width="80" height="20" as="geometry" />
        </mxCell>
        <mxCell id="YQWvjCsICB9NxYi1fDgW-460" value="GSLOT 6" style="rounded=0;whiteSpace=wrap;html=1;fillColor=#e51400;strokeColor=#B20000;fontColor=#ffffff;" vertex="1" parent="1">
          <mxGeometry x="1270" y="620" width="80" height="20" as="geometry" />
        </mxCell>
        <mxCell id="YQWvjCsICB9NxYi1fDgW-461" value="GSLOT 5" style="rounded=0;whiteSpace=wrap;html=1;fillColor=#ffe6cc;strokeColor=#d79b00;" vertex="1" parent="1">
          <mxGeometry x="1270" y="680" width="80" height="20" as="geometry" />
        </mxCell>
        <mxCell id="YQWvjCsICB9NxYi1fDgW-462" value="GSLOT 7" style="rounded=0;whiteSpace=wrap;html=1;fillColor=#d5e8d4;strokeColor=#82b366;" vertex="1" parent="1">
          <mxGeometry x="1270" y="720" width="80" height="20" as="geometry" />
        </mxCell>
        <mxCell id="YQWvjCsICB9NxYi1fDgW-463" value="GSLOT 8" style="rounded=0;whiteSpace=wrap;html=1;fillColor=#f8cecc;strokeColor=#b85450;" vertex="1" parent="1">
          <mxGeometry x="1270" y="740" width="80" height="20" as="geometry" />
        </mxCell>
        <mxCell id="YQWvjCsICB9NxYi1fDgW-464" value="GSLOT 6" style="rounded=0;whiteSpace=wrap;html=1;fillColor=#dae8fc;strokeColor=#6c8ebf;" vertex="1" parent="1">
          <mxGeometry x="1270" y="700" width="80" height="20" as="geometry" />
        </mxCell>
        <mxCell id="YQWvjCsICB9NxYi1fDgW-465" value="GSLOT 6" style="rounded=0;whiteSpace=wrap;html=1;fillColor=#0050ef;strokeColor=#001DBC;fontColor=#ffffff;" vertex="1" parent="1">
          <mxGeometry x="1360" y="120" width="80" height="20" as="geometry" />
        </mxCell>
        <mxCell id="YQWvjCsICB9NxYi1fDgW-466" value="GSLOT 3" style="rounded=0;whiteSpace=wrap;html=1;fillColor=#d5e8d4;strokeColor=#82b366;" vertex="1" parent="1">
          <mxGeometry x="1360" y="160" width="80" height="20" as="geometry" />
        </mxCell>
        <mxCell id="YQWvjCsICB9NxYi1fDgW-467" value="GSLOT 4" style="rounded=0;whiteSpace=wrap;html=1;fillColor=#f8cecc;strokeColor=#b85450;" vertex="1" parent="1">
          <mxGeometry x="1360" y="180" width="80" height="20" as="geometry" />
        </mxCell>
        <mxCell id="YQWvjCsICB9NxYi1fDgW-468" value="GSLOT 7" style="rounded=0;whiteSpace=wrap;html=1;fillColor=#e51400;strokeColor=#B20000;fontColor=#ffffff;" vertex="1" parent="1">
          <mxGeometry x="1360" y="140" width="80" height="20" as="geometry" />
        </mxCell>
        <mxCell id="YQWvjCsICB9NxYi1fDgW-469" value="GSLOT 5" style="rounded=0;whiteSpace=wrap;html=1;fillColor=#ffe6cc;strokeColor=#d79b00;" vertex="1" parent="1">
          <mxGeometry x="1360" y="200" width="80" height="20" as="geometry" />
        </mxCell>
        <mxCell id="YQWvjCsICB9NxYi1fDgW-470" value="GSLOT 7" style="rounded=0;whiteSpace=wrap;html=1;fillColor=#d5e8d4;strokeColor=#82b366;" vertex="1" parent="1">
          <mxGeometry x="1360" y="240" width="80" height="20" as="geometry" />
        </mxCell>
        <mxCell id="YQWvjCsICB9NxYi1fDgW-471" value="GSLOT 8" style="rounded=0;whiteSpace=wrap;html=1;fillColor=#f8cecc;strokeColor=#b85450;" vertex="1" parent="1">
          <mxGeometry x="1360" y="260" width="80" height="20" as="geometry" />
        </mxCell>
        <mxCell id="YQWvjCsICB9NxYi1fDgW-472" value="GSLOT 6" style="rounded=0;whiteSpace=wrap;html=1;fillColor=#dae8fc;strokeColor=#6c8ebf;" vertex="1" parent="1">
          <mxGeometry x="1360" y="220" width="80" height="20" as="geometry" />
        </mxCell>
        <mxCell id="YQWvjCsICB9NxYi1fDgW-473" value="GSLOT 7" style="rounded=0;whiteSpace=wrap;html=1;fillColor=#0050ef;strokeColor=#001DBC;fontColor=#ffffff;" vertex="1" parent="1">
          <mxGeometry x="1360" y="280" width="80" height="20" as="geometry" />
        </mxCell>
        <mxCell id="YQWvjCsICB9NxYi1fDgW-474" value="GSLOT 3" style="rounded=0;whiteSpace=wrap;html=1;fillColor=#d5e8d4;strokeColor=#82b366;" vertex="1" parent="1">
          <mxGeometry x="1360" y="320" width="80" height="20" as="geometry" />
        </mxCell>
        <mxCell id="YQWvjCsICB9NxYi1fDgW-475" value="GSLOT 4" style="rounded=0;whiteSpace=wrap;html=1;fillColor=#f8cecc;strokeColor=#b85450;" vertex="1" parent="1">
          <mxGeometry x="1360" y="340" width="80" height="20" as="geometry" />
        </mxCell>
        <mxCell id="YQWvjCsICB9NxYi1fDgW-476" value="GSLOT 8" style="rounded=0;whiteSpace=wrap;html=1;fillColor=#e51400;strokeColor=#B20000;fontColor=#ffffff;" vertex="1" parent="1">
          <mxGeometry x="1360" y="300" width="80" height="20" as="geometry" />
        </mxCell>
        <mxCell id="YQWvjCsICB9NxYi1fDgW-477" value="GSLOT 5" style="rounded=0;whiteSpace=wrap;html=1;fillColor=#ffe6cc;strokeColor=#d79b00;" vertex="1" parent="1">
          <mxGeometry x="1360" y="360" width="80" height="20" as="geometry" />
        </mxCell>
        <mxCell id="YQWvjCsICB9NxYi1fDgW-478" value="GSLOT 7" style="rounded=0;whiteSpace=wrap;html=1;fillColor=#d5e8d4;strokeColor=#82b366;" vertex="1" parent="1">
          <mxGeometry x="1360" y="400" width="80" height="20" as="geometry" />
        </mxCell>
        <mxCell id="YQWvjCsICB9NxYi1fDgW-479" value="GSLOT 8" style="rounded=0;whiteSpace=wrap;html=1;fillColor=#f8cecc;strokeColor=#b85450;" vertex="1" parent="1">
          <mxGeometry x="1360" y="420" width="80" height="20" as="geometry" />
        </mxCell>
        <mxCell id="YQWvjCsICB9NxYi1fDgW-480" value="GSLOT 6" style="rounded=0;whiteSpace=wrap;html=1;fillColor=#dae8fc;strokeColor=#6c8ebf;" vertex="1" parent="1">
          <mxGeometry x="1360" y="380" width="80" height="20" as="geometry" />
        </mxCell>
        <mxCell id="YQWvjCsICB9NxYi1fDgW-481" value="GSLOT 8" style="rounded=0;whiteSpace=wrap;html=1;fillColor=#0050ef;strokeColor=#001DBC;fontColor=#ffffff;" vertex="1" parent="1">
          <mxGeometry x="1360" y="440" width="80" height="20" as="geometry" />
        </mxCell>
        <mxCell id="YQWvjCsICB9NxYi1fDgW-482" value="GSLOT 3" style="rounded=0;whiteSpace=wrap;html=1;fillColor=#d5e8d4;strokeColor=#82b366;" vertex="1" parent="1">
          <mxGeometry x="1360" y="480" width="80" height="20" as="geometry" />
        </mxCell>
        <mxCell id="YQWvjCsICB9NxYi1fDgW-483" value="GSLOT 4" style="rounded=0;whiteSpace=wrap;html=1;fillColor=#f8cecc;strokeColor=#b85450;" vertex="1" parent="1">
          <mxGeometry x="1360" y="500" width="80" height="20" as="geometry" />
        </mxCell>
        <mxCell id="YQWvjCsICB9NxYi1fDgW-484" value="GSLOT 3" style="rounded=0;whiteSpace=wrap;html=1;fillColor=#e51400;strokeColor=#B20000;fontColor=#ffffff;" vertex="1" parent="1">
          <mxGeometry x="1360" y="460" width="80" height="20" as="geometry" />
        </mxCell>
        <mxCell id="YQWvjCsICB9NxYi1fDgW-485" value="GSLOT 5" style="rounded=0;whiteSpace=wrap;html=1;fillColor=#ffe6cc;strokeColor=#d79b00;" vertex="1" parent="1">
          <mxGeometry x="1360" y="520" width="80" height="20" as="geometry" />
        </mxCell>
        <mxCell id="YQWvjCsICB9NxYi1fDgW-486" value="GSLOT 7" style="rounded=0;whiteSpace=wrap;html=1;fillColor=#d5e8d4;strokeColor=#82b366;" vertex="1" parent="1">
          <mxGeometry x="1360" y="560" width="80" height="20" as="geometry" />
        </mxCell>
        <mxCell id="YQWvjCsICB9NxYi1fDgW-487" value="GSLOT 8" style="rounded=0;whiteSpace=wrap;html=1;fillColor=#f8cecc;strokeColor=#b85450;" vertex="1" parent="1">
          <mxGeometry x="1360" y="580" width="80" height="20" as="geometry" />
        </mxCell>
        <mxCell id="YQWvjCsICB9NxYi1fDgW-488" value="GSLOT 6" style="rounded=0;whiteSpace=wrap;html=1;fillColor=#dae8fc;strokeColor=#6c8ebf;" vertex="1" parent="1">
          <mxGeometry x="1360" y="540" width="80" height="20" as="geometry" />
        </mxCell>
        <mxCell id="YQWvjCsICB9NxYi1fDgW-489" value="GSLOT 6" style="rounded=0;whiteSpace=wrap;html=1;fillColor=#f0a30a;strokeColor=#BD7000;fontColor=#000000;" vertex="1" parent="1">
          <mxGeometry x="1360" y="600" width="80" height="20" as="geometry" />
        </mxCell>
        <mxCell id="YQWvjCsICB9NxYi1fDgW-490" value="GSLOT 3" style="rounded=0;whiteSpace=wrap;html=1;fillColor=#d5e8d4;strokeColor=#82b366;" vertex="1" parent="1">
          <mxGeometry x="1360" y="640" width="80" height="20" as="geometry" />
        </mxCell>
        <mxCell id="YQWvjCsICB9NxYi1fDgW-491" value="GSLOT 4" style="rounded=0;whiteSpace=wrap;html=1;fillColor=#f8cecc;strokeColor=#b85450;" vertex="1" parent="1">
          <mxGeometry x="1360" y="660" width="80" height="20" as="geometry" />
        </mxCell>
        <mxCell id="YQWvjCsICB9NxYi1fDgW-492" value="GSLOT 4" style="rounded=0;whiteSpace=wrap;html=1;fillColor=#e51400;strokeColor=#B20000;fontColor=#ffffff;" vertex="1" parent="1">
          <mxGeometry x="1360" y="620" width="80" height="20" as="geometry" />
        </mxCell>
        <mxCell id="YQWvjCsICB9NxYi1fDgW-493" value="GSLOT 5" style="rounded=0;whiteSpace=wrap;html=1;fillColor=#ffe6cc;strokeColor=#d79b00;" vertex="1" parent="1">
          <mxGeometry x="1360" y="680" width="80" height="20" as="geometry" />
        </mxCell>
        <mxCell id="YQWvjCsICB9NxYi1fDgW-494" value="GSLOT 7" style="rounded=0;whiteSpace=wrap;html=1;fillColor=#d5e8d4;strokeColor=#82b366;" vertex="1" parent="1">
          <mxGeometry x="1360" y="720" width="80" height="20" as="geometry" />
        </mxCell>
        <mxCell id="YQWvjCsICB9NxYi1fDgW-495" value="GSLOT 8" style="rounded=0;whiteSpace=wrap;html=1;fillColor=#f8cecc;strokeColor=#b85450;" vertex="1" parent="1">
          <mxGeometry x="1360" y="740" width="80" height="20" as="geometry" />
        </mxCell>
        <mxCell id="YQWvjCsICB9NxYi1fDgW-496" value="GSLOT 6" style="rounded=0;whiteSpace=wrap;html=1;fillColor=#dae8fc;strokeColor=#6c8ebf;" vertex="1" parent="1">
          <mxGeometry x="1360" y="700" width="80" height="20" as="geometry" />
        </mxCell>
        <mxCell id="YQWvjCsICB9NxYi1fDgW-497" value="0-127" style="text;html=1;align=center;verticalAlign=middle;resizable=0;points=[];autosize=1;strokeColor=none;fillColor=none;" vertex="1" parent="1">
          <mxGeometry x="1285" y="90" width="50" height="30" as="geometry" />
        </mxCell>
        <mxCell id="YQWvjCsICB9NxYi1fDgW-498" value="128-255" style="text;html=1;align=center;verticalAlign=middle;resizable=0;points=[];autosize=1;strokeColor=none;fillColor=none;" vertex="1" parent="1">
          <mxGeometry x="1360" y="90" width="70" height="30" as="geometry" />
        </mxCell>
      </root>
    </mxGraphModel>
  </diagram>
</mxfile>
